<?xml version="1.0" encoding="UTF-8" standalone="no"?>
<!-- Generator: Adobe Illustrator 13.0.1, SVG Export Plug-In . SVG Version: 6.00 Build 14948)  -->

<svg
   viewBox="0 0 117.833 41.902"
   height="0.581972in"
   width="1.63657in"
   id="breadboard_1_"
   version="1.1"
   x="0px"
   y="0px"
   enable-background="new 0 0 117.833 41.902"
   gorn="0"
   xml:space="preserve"
   sodipodi:docname="breadboard.PL2303_USBtoTTL.svg"
   inkscape:version="1.1.2 (b8e25be833, 2022-02-05)"
   xmlns:inkscape="http://www.inkscape.org/namespaces/inkscape"
   xmlns:sodipodi="http://sodipodi.sourceforge.net/DTD/sodipodi-0.dtd"
   xmlns="http://www.w3.org/2000/svg"
   xmlns:svg="http://www.w3.org/2000/svg"><defs
   id="defs1413" /><sodipodi:namedview
   id="namedview1411"
   pagecolor="#ffffff"
   bordercolor="#666666"
   borderopacity="1.0"
   inkscape:pageshadow="2"
   inkscape:pageopacity="0.0"
   inkscape:pagecheckerboard="0"
   inkscape:document-units="in"
   showgrid="false"
   inkscape:zoom="7.7411887"
   inkscape:cx="123.7536"
   inkscape:cy="16.470339"
   inkscape:window-width="1920"
   inkscape:window-height="991"
   inkscape:window-x="-9"
   inkscape:window-y="-9"
   inkscape:window-maximized="1"
   inkscape:current-layer="breadboard_1_" />
  <desc
   id="desc712">
    <referenceFile>USB-TTL_UART_breadboard.svg</referenceFile>
  </desc>
  <g
   id="PCB"
   gorn="0.1"
   sodipodi:insensitive="true"
   style="fill:#0000ff">
    <g
   id="pcb_1_"
   gorn="0.1.0"
   style="fill:#0000ff">
      <rect
   fill="none"
   height="42.042999"
   width="72.906998"
   stroke-width="0.5"
   stroke-linejoin="round"
   x="45.068001"
   stroke="#8c8c8c"
   id="rect714"
   y="0"
   style="fill:#0000ff" />
      <g
   id="g720"
   style="fill:#0000ff">
        <g
   id="g718"
   style="fill:#0000ff">
          <path
   d="m 45.208,0.142 v 41.76 h 72.625 V 0.142 Z m 69.329,1.32 c 0.862,0 1.561,0.697 1.561,1.559 0,0.862 -0.698,1.561 -1.561,1.561 -0.86,0 -1.557,-0.699 -1.557,-1.561 0,-0.862 0.696,-1.559 1.557,-1.559 z m 0.002,7.2 c 0.86,0 1.559,0.697 1.559,1.559 0,0.862 -0.698,1.561 -1.559,1.561 -0.862,0 -1.559,-0.699 -1.559,-1.561 0,-0.862 0.696,-1.559 1.559,-1.559 z m -0.002,7.2 c 0.862,0 1.561,0.697 1.561,1.559 0,0.862 -0.698,1.561 -1.561,1.561 -0.86,0 -1.557,-0.699 -1.557,-1.561 0,-0.862 0.696,-1.559 1.557,-1.559 z m 10e-4,7.2 c 0.861,0 1.56,0.697 1.56,1.559 0,0.862 -0.698,1.561 -1.56,1.561 -0.862,0 -1.558,-0.699 -1.558,-1.561 0,-0.862 0.696,-1.559 1.558,-1.559 z m -10e-4,7.2 c 0.862,0 1.561,0.697 1.561,1.559 0,0.862 -0.698,1.561 -1.561,1.561 -0.86,0 -1.558,-0.699 -1.558,-1.561 0,-0.862 0.697,-1.559 1.558,-1.559 z m -55.799,2.356 c -0.862,0 -1.559,-0.698 -1.559,-1.56 0,-0.862 0.696,-1.559 1.559,-1.559 0.86,0 1.559,0.697 1.559,1.559 0,0.862 -0.698,1.56 -1.559,1.56 z m -0.002,-7.202 c -0.86,0 -1.557,-0.698 -1.557,-1.56 0,-0.862 0.696,-1.559 1.557,-1.559 0.862,0 1.561,0.697 1.561,1.559 0,0.862 -0.698,1.56 -1.561,1.56 z m 0.001,-5.67 c -0.861,0 -1.558,-0.698 -1.558,-1.56 0,-0.862 0.696,-1.559 1.558,-1.559 0.862,0 1.56,0.697 1.56,1.559 0,0.862 -0.698,1.56 -1.56,1.56 z m 0,-7.202 c -0.86,0 -1.558,-0.698 -1.558,-1.56 0,-0.862 0.697,-1.559 1.558,-1.559 0.862,0 1.561,0.697 1.561,1.559 0,0.862 -0.699,1.56 -1.561,1.56 z m 19.797,28.038 c -0.86,0 -1.558,-0.699 -1.558,-1.561 0,-0.862 0.697,-1.559 1.558,-1.559 0.861,0 1.561,0.697 1.561,1.559 0,0.862 -0.7,1.561 -1.561,1.561 z m 0,-36.001 c -0.86,0 -1.558,-0.698 -1.558,-1.56 0,-0.862 0.697,-1.559 1.558,-1.559 0.861,0 1.561,0.697 1.561,1.559 0,0.862 -0.7,1.56 -1.561,1.56 z m 7.201,36.001 c -0.862,0 -1.56,-0.699 -1.56,-1.561 0,-0.862 0.697,-1.559 1.56,-1.559 0.86,0 1.558,0.697 1.558,1.559 0,0.862 -0.698,1.561 -1.558,1.561 z M 85.74,4.581 c -0.862,0 -1.56,-0.698 -1.56,-1.56 0,-0.862 0.697,-1.559 1.56,-1.559 0.86,0 1.558,0.697 1.558,1.559 0,0.862 -0.698,1.56 -1.558,1.56 z m 7.191,36.001 c -0.86,0 -1.558,-0.699 -1.558,-1.561 0,-0.862 0.697,-1.559 1.558,-1.559 0.861,0 1.561,0.697 1.561,1.559 0,0.862 -0.7,1.561 -1.561,1.561 z M 92.937,4.581 c -0.86,0 -1.558,-0.698 -1.558,-1.56 0,-0.862 0.697,-1.559 1.558,-1.559 0.861,0 1.561,0.697 1.561,1.559 0,0.862 -0.7,1.56 -1.561,1.56 z m 7.2,36.001 c -0.861,0 -1.561,-0.699 -1.561,-1.561 0,-0.862 0.699,-1.559 1.561,-1.559 0.859,0 1.559,0.697 1.559,1.559 0,0.862 -0.699,1.561 -1.559,1.561 z m 0,-36.001 c -0.861,0 -1.561,-0.698 -1.561,-1.56 0,-0.862 0.699,-1.559 1.561,-1.559 0.859,0 1.559,0.697 1.559,1.559 0,0.862 -0.699,1.56 -1.559,1.56 z m 14.403,36.001 c -0.861,0 -1.561,-0.699 -1.561,-1.561 0,-0.862 0.699,-1.559 1.561,-1.559 0.859,0 1.559,0.697 1.559,1.559 0,0.862 -0.7,1.561 -1.559,1.561 z"
   id="path716"
   style="fill:#0000ff" />
        </g>
      </g>
    </g>
  </g>
  <g
   id="Text"
   gorn="0.2">
    <g
   id="_x33_V3"
   gorn="0.2.0">
      <path
   fill="#ffffff"
   d="m 105.767,38.318 c 0,0.143 -0.05,0.265 -0.15,0.367 l -0.221,0.222 0.221,0.218 c 0.101,0.103 0.15,0.225 0.15,0.367 v 0.232 c 0,0.143 -0.05,0.265 -0.15,0.367 l -0.304,0.304 c -0.103,0.101 -0.225,0.15 -0.367,0.15 h -0.701 c -0.143,0 -0.266,-0.05 -0.368,-0.15 l -0.386,-0.386 c -0.045,-0.048 -0.067,-0.104 -0.067,-0.169 0,-0.062 0.022,-0.117 0.068,-0.163 0.047,-0.046 0.102,-0.069 0.166,-0.069 0.062,0 0.117,0.023 0.164,0.069 l 0.383,0.383 c 0.013,0.011 0.026,0.018 0.041,0.021 h 0.696 c 0.015,-0.003 0.028,-0.011 0.041,-0.023 l 0.301,-0.295 c 0.007,-0.013 0.012,-0.026 0.015,-0.041 v -0.226 c -0.003,-0.016 -0.008,-0.029 -0.015,-0.042 l -0.301,-0.295 c -0.013,-0.011 -0.026,-0.017 -0.041,-0.02 h -0.813 c -0.065,0 -0.121,-0.022 -0.167,-0.068 -0.047,-0.046 -0.069,-0.101 -0.069,-0.162 0,-0.064 0.023,-0.12 0.069,-0.166 0.047,-0.046 0.103,-0.068 0.167,-0.068 h 0.816 c 0.015,-0.003 0.029,-0.008 0.041,-0.016 l 0.296,-0.301 c 0.009,-0.013 0.015,-0.027 0.017,-0.042 v -0.229 c -0.002,-0.015 -0.006,-0.028 -0.012,-0.042 l -0.301,-0.295 c -0.013,-0.011 -0.026,-0.018 -0.042,-0.021 h -0.698 c -0.015,0.003 -0.028,0.01 -0.041,0.021 l -0.383,0.382 c -0.047,0.047 -0.102,0.07 -0.164,0.07 -0.064,0 -0.119,-0.023 -0.166,-0.069 -0.046,-0.046 -0.068,-0.101 -0.068,-0.163 0,-0.065 0.022,-0.121 0.067,-0.169 l 0.386,-0.386 c 0.103,-0.101 0.226,-0.15 0.368,-0.15 h 0.701 c 0.143,0 0.265,0.05 0.367,0.15 l 0.304,0.304 c 0.101,0.103 0.15,0.225 0.15,0.367 z"
   id="path724" />
      <path
   fill="#ffffff"
   d="m 108.343,37.264 c 0.064,0 0.12,0.023 0.167,0.069 0.046,0.046 0.069,0.102 0.069,0.167 v 1.755 c 0,0.143 -0.05,0.265 -0.15,0.367 l -0.854,0.855 c -0.048,0.045 -0.104,0.067 -0.169,0.067 -0.062,0 -0.117,-0.022 -0.165,-0.067 l -0.855,-0.855 c -0.1,-0.103 -0.149,-0.225 -0.149,-0.367 V 37.5 c 0,-0.065 0.022,-0.121 0.069,-0.167 0.046,-0.046 0.101,-0.069 0.163,-0.069 0.064,0 0.12,0.023 0.167,0.069 0.046,0.047 0.069,0.103 0.069,0.167 v 1.753 c 0.002,0.016 0.008,0.029 0.017,0.042 l 0.687,0.687 0.687,-0.687 c 0.009,-0.013 0.015,-0.026 0.017,-0.042 V 37.5 c 0,-0.064 0.022,-0.12 0.069,-0.167 0.044,-0.045 0.099,-0.069 0.161,-0.069 z"
   id="path726" />
      <path
   fill="#ffffff"
   d="m 111.392,38.318 c 0,0.143 -0.05,0.265 -0.15,0.367 l -0.221,0.222 0.221,0.218 c 0.101,0.103 0.15,0.225 0.15,0.367 v 0.232 c 0,0.143 -0.05,0.265 -0.15,0.367 l -0.304,0.304 c -0.103,0.101 -0.225,0.15 -0.367,0.15 h -0.701 c -0.143,0 -0.266,-0.05 -0.368,-0.15 l -0.386,-0.386 c -0.045,-0.048 -0.067,-0.104 -0.067,-0.169 0,-0.062 0.022,-0.117 0.068,-0.163 0.047,-0.046 0.102,-0.069 0.166,-0.069 0.062,0 0.117,0.023 0.164,0.069 l 0.383,0.383 c 0.013,0.011 0.026,0.018 0.041,0.021 h 0.696 c 0.015,-0.003 0.028,-0.011 0.041,-0.023 l 0.301,-0.295 c 0.007,-0.013 0.012,-0.026 0.015,-0.041 v -0.226 c -0.003,-0.016 -0.008,-0.029 -0.015,-0.042 l -0.301,-0.295 c -0.013,-0.011 -0.026,-0.017 -0.041,-0.02 h -0.813 c -0.065,0 -0.121,-0.022 -0.167,-0.068 -0.047,-0.046 -0.069,-0.101 -0.069,-0.162 0,-0.064 0.023,-0.12 0.069,-0.166 0.047,-0.046 0.103,-0.068 0.167,-0.068 h 0.816 c 0.015,-0.003 0.029,-0.008 0.041,-0.016 l 0.296,-0.301 c 0.009,-0.013 0.015,-0.027 0.017,-0.042 v -0.229 c -0.002,-0.015 -0.006,-0.028 -0.012,-0.042 l -0.301,-0.295 c -0.013,-0.011 -0.026,-0.018 -0.042,-0.021 h -0.698 c -0.015,0.003 -0.028,0.01 -0.041,0.021 l -0.383,0.382 c -0.047,0.047 -0.102,0.07 -0.164,0.07 -0.064,0 -0.119,-0.023 -0.166,-0.069 -0.046,-0.046 -0.068,-0.101 -0.068,-0.163 0,-0.065 0.022,-0.121 0.067,-0.169 l 0.386,-0.386 c 0.103,-0.101 0.226,-0.15 0.368,-0.15 h 0.701 c 0.143,0 0.265,0.05 0.367,0.15 l 0.304,0.304 c 0.101,0.103 0.15,0.225 0.15,0.367 z"
   id="path728" />
    </g>
    <g
   id="GND"
   gorn="0.2.1">
      <path
   fill="#ffffff"
   d="m 103.83849,16.597423 c -0.008,0.013 -0.013,0.026 -0.015,0.041 v 1.633 c 0.002,0.015 0.007,0.028 0.015,0.041 l 0.3,0.3 c 0.013,0.009 0.026,0.016 0.041,0.019 h 0.694 c 0.016,-0.003 0.029,-0.01 0.042,-0.019 l 0.3,-0.3 c 0.007,-0.013 0.012,-0.026 0.015,-0.041 v -0.582 h -0.232 c -0.065,0 -0.121,-0.022 -0.167,-0.068 -0.047,-0.046 -0.069,-0.102 -0.069,-0.166 0,-0.062 0.022,-0.116 0.069,-0.162 0.046,-0.046 0.102,-0.068 0.167,-0.068 h 0.469 c 0.062,0 0.116,0.022 0.163,0.069 0.046,0.046 0.069,0.102 0.069,0.166 v 0.815 c 0,0.143 -0.05,0.265 -0.15,0.366 l -0.304,0.304 c -0.103,0.101 -0.225,0.15 -0.367,0.15 h -0.701 c -0.143,0 -0.266,-0.05 -0.368,-0.15 l -0.304,-0.304 c -0.1,-0.103 -0.149,-0.225 -0.149,-0.367 v -1.639 c 0,-0.143 0.05,-0.265 0.149,-0.367 l 0.304,-0.304 c 0.103,-0.101 0.226,-0.15 0.368,-0.15 h 0.701 c 0.143,0 0.265,0.05 0.367,0.15 l 0.386,0.386 c 0.045,0.048 0.067,0.104 0.067,0.169 0,0.062 -0.023,0.117 -0.069,0.163 -0.047,0.046 -0.103,0.069 -0.167,0.069 -0.062,0 -0.118,-0.022 -0.165,-0.067 l -0.382,-0.387 c -0.013,-0.009 -0.026,-0.016 -0.042,-0.019 h -0.694 c -0.015,0.003 -0.028,0.01 -0.041,0.019 z"
   id="path731" />
      <path
   fill="#ffffff"
   d="m 108.27849,15.814423 c 0.064,0 0.12,0.023 0.165,0.069 0.045,0.046 0.067,0.102 0.067,0.167 v 2.812 c 0,0.062 -0.022,0.117 -0.067,0.163 -0.045,0.046 -0.101,0.069 -0.165,0.069 -0.065,0 -0.121,-0.023 -0.167,-0.069 -0.047,-0.047 -0.069,-0.101 -0.069,-0.163 v -0.846 l -1.406,-1.404 v 2.25 c 0,0.062 -0.022,0.117 -0.067,0.163 -0.045,0.046 -0.101,0.069 -0.165,0.069 -0.065,0 -0.121,-0.023 -0.167,-0.069 -0.047,-0.046 -0.069,-0.101 -0.069,-0.163 v -2.812 c 0,-0.065 0.022,-0.121 0.069,-0.167 0.046,-0.046 0.102,-0.069 0.167,-0.069 0.064,0 0.12,0.022 0.165,0.067 l 1.474,1.478 v -1.309 c 0,-0.065 0.022,-0.121 0.069,-0.167 0.045,-0.046 0.101,-0.069 0.166,-0.069 z"
   id="path733" />
      <path
   fill="#ffffff"
   d="m 111.16949,16.268423 c 0.103,0.103 0.154,0.225 0.154,0.367 v 1.639 c 0,0.143 -0.05,0.265 -0.15,0.367 l -0.304,0.304 c -0.103,0.101 -0.225,0.15 -0.367,0.15 h -1.286 c -0.065,0 -0.121,-0.023 -0.167,-0.069 -0.047,-0.046 -0.069,-0.102 -0.069,-0.167 v -2.809 c 0,-0.065 0.022,-0.121 0.069,-0.167 0.046,-0.046 0.102,-0.069 0.167,-0.069 h 1.286 c 0.143,0 0.265,0.051 0.367,0.153 z m -0.331,2.046 c 0.009,-0.013 0.015,-0.026 0.017,-0.041 v -1.632 c 0,-0.015 -0.007,-0.028 -0.021,-0.041 l -0.295,-0.301 c -0.013,-0.01 -0.026,-0.017 -0.041,-0.021 h -1.049 v 2.352 h 1.052 c 0.016,-0.003 0.029,-0.01 0.042,-0.021 z"
   id="path735" />
    </g>
    <g
   id="_x2B_5V"
   gorn="0.2.2">
      <path
   fill="#ffffff"
   d="m 105.30399,10.09293 c 0.062,0 0.116,0.022 0.163,0.068 0.046,0.046 0.069,0.102 0.069,0.166 0,0.062 -0.023,0.116 -0.069,0.162 -0.047,0.046 -0.101,0.068 -0.163,0.068 h -0.236 v 0.232 c 0,0.065 -0.023,0.121 -0.069,0.167 -0.047,0.046 -0.101,0.069 -0.163,0.069 -0.065,0 -0.121,-0.023 -0.167,-0.069 -0.047,-0.046 -0.069,-0.102 -0.069,-0.167 v -0.232 h -0.232 c -0.065,0 -0.121,-0.022 -0.167,-0.068 -0.047,-0.046 -0.069,-0.102 -0.069,-0.166 0,-0.062 0.022,-0.116 0.069,-0.162 0.046,-0.046 0.102,-0.068 0.167,-0.068 h 0.232 V 9.8589302 c 0,-0.065 0.022,-0.122 0.069,-0.168 0.046,-0.047 0.102,-0.07 0.167,-0.07 0.062,0 0.116,0.023 0.163,0.07 0.046,0.046 0.069,0.103 0.069,0.168 V 10.09293 Z"
   id="path738" />
      <path
   fill="#ffffff"
   d="m 106.35799,8.6829302 h 1.755 c 0.064,0 0.12,0.023 0.167,0.068 0.046,0.046 0.069,0.102 0.069,0.166 0,0.062 -0.023,0.116 -0.069,0.162 -0.047,0.046 -0.103,0.068 -0.167,0.068 h -1.639 v 0.473 h 1.054 c 0.143,0 0.265,0.05 0.367,0.15 l 0.304,0.3039998 c 0.101,0.103 0.15,0.225 0.15,0.367 v 0.701 c 0,0.143 -0.05,0.265 -0.15,0.367 l -0.304,0.304 c -0.103,0.101 -0.225,0.15 -0.367,0.15 h -0.701 c -0.143,0 -0.266,-0.05 -0.368,-0.15 l -0.386,-0.386 c -0.045,-0.048 -0.067,-0.104 -0.067,-0.169 0,-0.062 0.022,-0.117 0.068,-0.163 0.047,-0.046 0.102,-0.069 0.166,-0.069 0.062,0 0.117,0.023 0.164,0.069 l 0.383,0.383 c 0.013,0.011 0.026,0.018 0.041,0.021 h 0.696 c 0.015,-0.003 0.028,-0.011 0.041,-0.023 l 0.301,-0.295 c 0.007,-0.013 0.012,-0.026 0.015,-0.042 v -0.696 c -0.002,-0.016 -0.006,-0.029 -0.012,-0.042 l -0.301,-0.295 c -0.013,-0.011 -0.026,-0.018 -0.042,-0.021 h -1.168 c -0.098,0 -0.181,-0.034 -0.249,-0.1029998 -0.069,-0.068 -0.104,-0.151 -0.104,-0.249 v -0.699 c 0,-0.098 0.034,-0.18 0.103,-0.249 0.069,-0.068 0.152,-0.102 0.25,-0.102 z"
   id="path740" />
      <path
   fill="#ffffff"
   d="m 110.92499,8.6829302 c 0.064,0 0.12,0.023 0.167,0.069 0.046,0.046 0.069,0.102 0.069,0.167 V 10.67393 c 0,0.143 -0.05,0.265 -0.15,0.367 l -0.854,0.855 c -0.048,0.045 -0.104,0.067 -0.169,0.067 -0.062,0 -0.117,-0.022 -0.165,-0.067 l -0.855,-0.855 c -0.1,-0.103 -0.149,-0.225 -0.149,-0.367 V 8.9189302 c 0,-0.065 0.022,-0.121 0.069,-0.167 0.046,-0.046 0.101,-0.069 0.163,-0.069 0.064,0 0.12,0.023 0.167,0.069 0.046,0.047 0.069,0.103 0.069,0.167 V 10.67193 c 0.002,0.016 0.008,0.029 0.017,0.042 l 0.687,0.687 0.687,-0.687 c 0.009,-0.013 0.015,-0.026 0.017,-0.042 V 8.9189302 c 0,-0.064 0.022,-0.12 0.069,-0.167 0.044,-0.046 0.099,-0.069 0.161,-0.069 z"
   id="path742" />
    </g>
    <g
   id="TXD"
   gorn="0.2.3">
      <path
   fill="#ffffff"
   d="m 105.26097,30.256114 c 0.062,0 0.116,0.023 0.163,0.068 0.046,0.046 0.069,0.102 0.069,0.166 0,0.062 -0.023,0.116 -0.069,0.162 -0.047,0.046 -0.101,0.068 -0.163,0.068 h -0.705 v 2.58 c 0,0.064 -0.023,0.121 -0.069,0.167 -0.047,0.046 -0.101,0.069 -0.163,0.069 -0.065,0 -0.121,-0.023 -0.167,-0.069 -0.047,-0.046 -0.069,-0.103 -0.069,-0.167 v -2.58 h -0.701 c -0.065,0 -0.121,-0.022 -0.167,-0.068 -0.047,-0.046 -0.069,-0.101 -0.069,-0.162 0,-0.064 0.022,-0.12 0.069,-0.166 0.046,-0.045 0.102,-0.068 0.167,-0.068 z"
   id="path745" />
      <path
   fill="#ffffff"
   d="m 108.07297,30.256114 c 0.062,0 0.116,0.023 0.163,0.069 0.046,0.046 0.069,0.102 0.069,0.167 v 0.349 c 0,0.143 -0.05,0.265 -0.15,0.367 l -0.692,0.691 0.692,0.686 c 0.101,0.103 0.15,0.225 0.15,0.367 v 0.349 c 0,0.065 -0.023,0.121 -0.069,0.167 -0.047,0.046 -0.101,0.069 -0.163,0.069 -0.065,0 -0.121,-0.023 -0.167,-0.069 -0.047,-0.046 -0.069,-0.103 -0.069,-0.167 v -0.346 c -0.003,-0.015 -0.008,-0.028 -0.015,-0.041 l -0.686,-0.684 -0.691,0.685 c -0.007,0.012 -0.013,0.025 -0.015,0.041 v 0.345 c 0,0.065 -0.023,0.121 -0.069,0.167 -0.047,0.046 -0.101,0.069 -0.163,0.069 -0.065,0 -0.121,-0.023 -0.167,-0.069 -0.047,-0.046 -0.069,-0.102 -0.069,-0.167 v -0.349 c 0,-0.143 0.05,-0.265 0.15,-0.367 l 0.69,-0.688 -0.69,-0.688 c -0.101,-0.103 -0.15,-0.225 -0.15,-0.367 v -0.35 c 0,-0.065 0.022,-0.121 0.069,-0.167 0.046,-0.046 0.102,-0.069 0.167,-0.069 0.062,0 0.116,0.023 0.163,0.069 0.046,0.047 0.069,0.103 0.069,0.168 v 0.346 c 0.002,0.015 0.008,0.028 0.015,0.041 l 0.691,0.688 0.686,-0.689 c 0.007,-0.013 0.012,-0.026 0.015,-0.041 v -0.346 c 0,-0.064 0.022,-0.121 0.069,-0.167 0.046,-0.045 0.102,-0.069 0.167,-0.069 z"
   id="path747" />
      <path
   fill="#ffffff"
   d="m 110.96397,30.710114 c 0.103,0.103 0.154,0.225 0.154,0.367 v 1.639 c 0,0.143 -0.05,0.265 -0.15,0.367 l -0.304,0.304 c -0.103,0.101 -0.225,0.15 -0.367,0.15 h -1.286 c -0.065,0 -0.121,-0.023 -0.167,-0.069 -0.047,-0.046 -0.069,-0.102 -0.069,-0.167 v -2.809 c 0,-0.065 0.022,-0.121 0.069,-0.167 0.046,-0.046 0.102,-0.069 0.167,-0.069 h 1.286 c 0.143,0 0.265,0.051 0.367,0.153 z m -0.331,2.046 c 0.009,-0.013 0.015,-0.026 0.017,-0.041 v -1.632 c 0,-0.015 -0.007,-0.028 -0.021,-0.041 l -0.295,-0.301 c -0.013,-0.01 -0.026,-0.017 -0.041,-0.021 h -1.049 v 2.352 h 1.052 c 0.016,-0.003 0.029,-0.01 0.042,-0.021 z"
   id="path749" />
    </g>
    <g
   id="TXD_1_"
   gorn="0.2.4">
      <path
   fill="#ffffff"
   d="m 95.035,7.289 c 0.062,0 0.116,0.023 0.163,0.068 0.046,0.046 0.069,0.102 0.069,0.166 0,0.062 -0.023,0.116 -0.069,0.162 -0.047,0.046 -0.101,0.068 -0.163,0.068 H 94.33 v 2.58 c 0,0.064 -0.023,0.121 -0.069,0.167 -0.047,0.046 -0.101,0.069 -0.163,0.069 -0.065,0 -0.121,-0.023 -0.167,-0.069 -0.047,-0.046 -0.069,-0.103 -0.069,-0.167 V 7.753 H 93.16 c -0.065,0 -0.121,-0.022 -0.167,-0.068 -0.047,-0.046 -0.069,-0.101 -0.069,-0.162 0,-0.064 0.022,-0.12 0.069,-0.166 0.046,-0.045 0.102,-0.068 0.167,-0.068 z"
   id="path752" />
      <path
   fill="#ffffff"
   d="m 97.847,7.289 c 0.062,0 0.116,0.023 0.163,0.069 0.046,0.046 0.069,0.102 0.069,0.167 v 0.349 c 0,0.143 -0.05,0.265 -0.15,0.367 l -0.692,0.691 0.692,0.686 c 0.101,0.103 0.15,0.225 0.15,0.367 v 0.349 c 0,0.065 -0.023,0.121 -0.069,0.167 -0.047,0.046 -0.101,0.069 -0.163,0.069 -0.065,0 -0.121,-0.023 -0.167,-0.069 -0.047,-0.046 -0.069,-0.103 -0.069,-0.167 V 9.988 C 97.608,9.973 97.603,9.96 97.596,9.947 L 96.91,9.263 96.219,9.948 C 96.212,9.96 96.206,9.973 96.204,9.989 v 0.345 c 0,0.065 -0.023,0.121 -0.069,0.167 -0.047,0.046 -0.101,0.069 -0.163,0.069 -0.065,0 -0.121,-0.023 -0.167,-0.069 -0.047,-0.046 -0.069,-0.102 -0.069,-0.167 V 9.985 c 0,-0.143 0.05,-0.265 0.15,-0.367 L 96.576,8.93 95.886,8.242 C 95.785,8.139 95.736,8.017 95.736,7.875 v -0.35 c 0,-0.065 0.022,-0.121 0.069,-0.167 0.046,-0.046 0.102,-0.069 0.167,-0.069 0.062,0 0.116,0.023 0.163,0.069 0.046,0.047 0.069,0.103 0.069,0.168 v 0.346 c 0.002,0.015 0.008,0.028 0.015,0.041 L 96.91,8.601 97.596,7.912 C 97.603,7.899 97.608,7.886 97.611,7.871 V 7.525 c 0,-0.064 0.022,-0.121 0.069,-0.167 0.046,-0.046 0.102,-0.069 0.167,-0.069 z"
   id="path754" />
      <path
   fill="#ffffff"
   d="m 100.738,7.743 c 0.103,0.103 0.154,0.225 0.154,0.367 v 1.639 c 0,0.143 -0.05,0.265 -0.15,0.367 l -0.304,0.304 c -0.103,0.101 -0.225,0.15 -0.367,0.15 h -1.286 c -0.065,0 -0.121,-0.023 -0.167,-0.069 -0.047,-0.046 -0.069,-0.102 -0.069,-0.167 V 7.525 c 0,-0.065 0.022,-0.121 0.069,-0.167 0.046,-0.046 0.102,-0.069 0.167,-0.069 h 1.286 c 0.143,0 0.265,0.051 0.367,0.153 z m -0.331,2.046 c 0.009,-0.013 0.015,-0.026 0.017,-0.041 V 8.116 c 0,-0.015 -0.007,-0.028 -0.021,-0.041 l -0.295,-0.301 c -0.013,-0.01 -0.026,-0.017 -0.041,-0.021 h -1.049 v 2.352 h 1.052 c 0.016,-0.003 0.029,-0.01 0.042,-0.021 z"
   id="path756" />
    </g>
    <g
   id="RXD"
   gorn="0.2.5">
      <path
   fill="#ffffff"
   d="m 105.767,25.968099 c 0,0.062 -0.023,0.117 -0.069,0.163 -0.047,0.046 -0.101,0.069 -0.163,0.069 -0.065,0 -0.121,-0.022 -0.169,-0.067 l -1.335,-1.339 h -0.139 v 1.17 c 0,0.065 -0.023,0.121 -0.069,0.167 -0.047,0.046 -0.101,0.069 -0.163,0.069 -0.065,0 -0.121,-0.023 -0.167,-0.069 -0.047,-0.046 -0.069,-0.102 -0.069,-0.167 v -2.809 c 0,-0.065 0.022,-0.121 0.069,-0.167 0.046,-0.046 0.102,-0.069 0.167,-0.069 h 1.286 c 0.143,0 0.265,0.05 0.367,0.15 l 0.304,0.304 c 0.101,0.103 0.15,0.225 0.15,0.367 v 0.232 c 0,0.143 -0.05,0.265 -0.15,0.367 l -0.304,0.304 c -0.103,0.101 -0.225,0.15 -0.367,0.15 h -0.255 l 1.009,1.005 c 0.045,0.049 0.067,0.104 0.067,0.17 z m -1.875,-1.643 h 1.05 c 0.015,-0.003 0.028,-0.009 0.041,-0.019 l 0.3,-0.297 c 0.008,-0.012 0.013,-0.025 0.016,-0.041 v -0.224 c -0.003,-0.016 -0.008,-0.029 -0.016,-0.041 l -0.3,-0.297 c -0.013,-0.01 -0.026,-0.016 -0.041,-0.019 h -1.05 z"
   id="path759" />
      <path
   fill="#ffffff"
   d="m 108.347,22.919099 c 0.062,0 0.116,0.023 0.163,0.069 0.046,0.046 0.069,0.102 0.069,0.167 v 0.349 c 0,0.143 -0.05,0.265 -0.15,0.367 l -0.692,0.691 0.692,0.686 c 0.101,0.103 0.15,0.225 0.15,0.367 v 0.349 c 0,0.065 -0.023,0.121 -0.069,0.167 -0.047,0.046 -0.101,0.069 -0.163,0.069 -0.065,0 -0.121,-0.023 -0.167,-0.069 -0.047,-0.046 -0.069,-0.103 -0.069,-0.167 v -0.346 c -0.003,-0.015 -0.008,-0.028 -0.015,-0.041 l -0.686,-0.684 -0.691,0.685 c -0.007,0.012 -0.013,0.025 -0.015,0.041 v 0.345 c 0,0.065 -0.023,0.121 -0.069,0.167 -0.047,0.046 -0.101,0.069 -0.163,0.069 -0.065,0 -0.121,-0.023 -0.167,-0.069 -0.047,-0.046 -0.069,-0.102 -0.069,-0.167 v -0.349 c 0,-0.143 0.05,-0.265 0.15,-0.367 l 0.69,-0.688 -0.69,-0.688 c -0.101,-0.103 -0.15,-0.225 -0.15,-0.367 v -0.35 c 0,-0.065 0.022,-0.121 0.069,-0.167 0.046,-0.046 0.102,-0.069 0.167,-0.069 0.062,0 0.116,0.023 0.163,0.069 0.046,0.047 0.069,0.103 0.069,0.168 v 0.346 c 0.002,0.015 0.008,0.028 0.015,0.041 l 0.691,0.688 0.686,-0.689 c 0.007,-0.013 0.012,-0.026 0.015,-0.041 v -0.346 c 0,-0.064 0.022,-0.121 0.069,-0.167 0.046,-0.046 0.102,-0.069 0.167,-0.069 z"
   id="path761" />
      <path
   fill="#ffffff"
   d="m 111.238,23.373099 c 0.103,0.103 0.154,0.225 0.154,0.367 v 1.639 c 0,0.143 -0.05,0.265 -0.15,0.367 l -0.304,0.304 c -0.103,0.101 -0.225,0.15 -0.367,0.15 h -1.286 c -0.065,0 -0.121,-0.023 -0.167,-0.069 -0.047,-0.046 -0.069,-0.102 -0.069,-0.167 v -2.809 c 0,-0.065 0.022,-0.121 0.069,-0.167 0.046,-0.046 0.102,-0.069 0.167,-0.069 h 1.286 c 0.143,0 0.265,0.051 0.367,0.153 z m -0.331,2.046 c 0.009,-0.013 0.015,-0.026 0.017,-0.041 v -1.632 c 0,-0.015 -0.007,-0.028 -0.021,-0.041 l -0.295,-0.301 c -0.013,-0.01 -0.026,-0.017 -0.041,-0.021 h -1.049 v 2.352 h 1.052 c 0.016,-0.003 0.029,-0.01 0.042,-0.021 z"
   id="path763" />
    </g>
    <g
   id="RXD_1_"
   gorn="0.2.6">
      <path
   fill="#ffffff"
   d="m 95.267,34.763 c 0,0.062 -0.023,0.117 -0.069,0.163 -0.047,0.046 -0.101,0.069 -0.163,0.069 -0.065,0 -0.121,-0.022 -0.169,-0.067 l -1.335,-1.339 h -0.139 v 1.17 c 0,0.065 -0.023,0.121 -0.069,0.167 -0.047,0.046 -0.101,0.069 -0.163,0.069 -0.065,0 -0.121,-0.023 -0.167,-0.069 -0.047,-0.046 -0.069,-0.102 -0.069,-0.167 V 31.95 c 0,-0.065 0.022,-0.121 0.069,-0.167 0.046,-0.046 0.102,-0.069 0.167,-0.069 h 1.286 c 0.143,0 0.265,0.05 0.367,0.15 l 0.304,0.304 c 0.101,0.103 0.15,0.225 0.15,0.367 v 0.232 c 0,0.143 -0.05,0.265 -0.15,0.367 l -0.304,0.304 c -0.103,0.101 -0.225,0.15 -0.367,0.15 h -0.255 l 1.009,1.005 c 0.045,0.049 0.067,0.105 0.067,0.17 z m -1.875,-1.642 h 1.05 c 0.015,-0.003 0.028,-0.009 0.041,-0.019 l 0.3,-0.297 c 0.008,-0.012 0.013,-0.025 0.016,-0.041 V 32.54 c -0.003,-0.016 -0.008,-0.029 -0.016,-0.041 l -0.3,-0.297 c -0.013,-0.01 -0.026,-0.016 -0.041,-0.019 h -1.05 z"
   id="path766" />
      <path
   fill="#ffffff"
   d="m 97.847,31.714 c 0.062,0 0.116,0.023 0.163,0.069 0.046,0.046 0.069,0.102 0.069,0.167 v 0.349 c 0,0.143 -0.05,0.265 -0.15,0.367 l -0.692,0.691 0.692,0.686 c 0.101,0.103 0.15,0.225 0.15,0.367 v 0.349 c 0,0.065 -0.023,0.121 -0.069,0.167 -0.047,0.046 -0.101,0.069 -0.163,0.069 -0.065,0 -0.121,-0.023 -0.167,-0.069 -0.047,-0.046 -0.069,-0.103 -0.069,-0.167 v -0.346 c -0.003,-0.015 -0.008,-0.028 -0.015,-0.041 l -0.686,-0.684 -0.691,0.685 c -0.007,0.012 -0.013,0.025 -0.015,0.041 v 0.345 c 0,0.065 -0.023,0.121 -0.069,0.167 -0.047,0.046 -0.101,0.069 -0.163,0.069 -0.065,0 -0.121,-0.023 -0.167,-0.069 -0.047,-0.046 -0.069,-0.102 -0.069,-0.167 V 34.41 c 0,-0.143 0.05,-0.265 0.15,-0.367 l 0.69,-0.688 -0.69,-0.688 c -0.101,-0.103 -0.15,-0.225 -0.15,-0.367 v -0.349 c 0,-0.065 0.022,-0.121 0.069,-0.167 0.046,-0.046 0.102,-0.069 0.167,-0.069 0.062,0 0.116,0.023 0.163,0.069 0.046,0.047 0.069,0.103 0.069,0.168 v 0.346 c 0.002,0.015 0.008,0.028 0.015,0.041 l 0.691,0.688 0.686,-0.689 c 0.007,-0.013 0.012,-0.026 0.015,-0.041 v -0.346 c 0,-0.064 0.022,-0.121 0.069,-0.167 0.046,-0.046 0.102,-0.07 0.167,-0.07 z"
   id="path768" />
      <path
   fill="#ffffff"
   d="m 100.738,32.168 c 0.103,0.103 0.154,0.225 0.154,0.367 v 1.639 c 0,0.143 -0.05,0.265 -0.15,0.367 l -0.304,0.304 c -0.103,0.101 -0.225,0.15 -0.367,0.15 h -1.286 c -0.065,0 -0.121,-0.023 -0.167,-0.069 -0.047,-0.046 -0.069,-0.102 -0.069,-0.167 V 31.95 c 0,-0.065 0.022,-0.121 0.069,-0.167 0.046,-0.046 0.102,-0.069 0.167,-0.069 h 1.286 c 0.143,0 0.265,0.051 0.367,0.153 z m -0.331,2.046 c 0.009,-0.013 0.015,-0.026 0.017,-0.041 v -1.632 c 0,-0.015 -0.007,-0.028 -0.021,-0.041 l -0.295,-0.301 c -0.013,-0.01 -0.026,-0.017 -0.041,-0.021 h -1.049 v 2.352 h 1.052 c 0.016,-0.003 0.029,-0.01 0.042,-0.021 z"
   id="path770" />
    </g>
    <g
   id="DTR"
   gorn="0.2.7">
      <path
   fill="#ffffff"
   d="m 105.613,1.718 c 0.103,0.103 0.154,0.225 0.154,0.367 v 1.639 c 0,0.143 -0.05,0.265 -0.15,0.367 l -0.304,0.304 c -0.103,0.101 -0.225,0.15 -0.367,0.15 h -1.286 c -0.065,0 -0.121,-0.023 -0.167,-0.069 -0.047,-0.046 -0.069,-0.102 -0.069,-0.167 V 1.5 c 0,-0.065 0.022,-0.121 0.069,-0.167 0.046,-0.046 0.102,-0.069 0.167,-0.069 h 1.286 c 0.143,0 0.265,0.051 0.367,0.153 z m -0.331,2.046 c 0.009,-0.013 0.015,-0.026 0.017,-0.041 V 2.091 c 0,-0.015 -0.007,-0.028 -0.021,-0.041 l -0.295,-0.301 c -0.013,-0.01 -0.026,-0.017 -0.041,-0.021 h -1.049 V 4.08 h 1.052 c 0.016,-0.003 0.029,-0.01 0.042,-0.021 z"
   id="path773" />
      <path
   fill="#ffffff"
   d="m 108.347,1.264 c 0.062,0 0.116,0.023 0.163,0.068 0.046,0.046 0.069,0.102 0.069,0.166 0,0.062 -0.023,0.116 -0.069,0.162 -0.047,0.046 -0.101,0.068 -0.163,0.068 h -0.705 v 2.58 c 0,0.064 -0.023,0.121 -0.069,0.167 -0.047,0.046 -0.101,0.069 -0.163,0.069 -0.065,0 -0.121,-0.023 -0.167,-0.069 -0.047,-0.046 -0.069,-0.103 -0.069,-0.167 v -2.58 h -0.701 c -0.065,0 -0.121,-0.022 -0.167,-0.068 -0.047,-0.046 -0.069,-0.101 -0.069,-0.162 0,-0.064 0.022,-0.12 0.069,-0.166 0.046,-0.045 0.102,-0.068 0.167,-0.068 z"
   id="path775" />
      <path
   fill="#ffffff"
   d="m 111.392,4.312 c 0,0.062 -0.023,0.117 -0.069,0.163 -0.047,0.046 -0.101,0.069 -0.163,0.069 -0.065,0 -0.121,-0.022 -0.169,-0.067 l -1.335,-1.339 h -0.139 v 1.17 c 0,0.065 -0.023,0.121 -0.069,0.167 -0.047,0.046 -0.101,0.069 -0.163,0.069 -0.065,0 -0.121,-0.023 -0.167,-0.069 -0.047,-0.046 -0.069,-0.102 -0.069,-0.167 V 1.5 c 0,-0.065 0.022,-0.121 0.069,-0.167 0.046,-0.046 0.102,-0.069 0.167,-0.069 h 1.286 c 0.143,0 0.265,0.05 0.367,0.15 l 0.304,0.304 c 0.101,0.103 0.15,0.225 0.15,0.367 v 0.232 c 0,0.143 -0.05,0.265 -0.15,0.367 l -0.304,0.304 c -0.103,0.101 -0.225,0.15 -0.367,0.15 h -0.255 l 1.009,1.005 c 0.045,0.048 0.067,0.104 0.067,0.169 z M 109.517,2.67 h 1.05 c 0.015,-0.003 0.028,-0.009 0.041,-0.019 l 0.3,-0.297 c 0.008,-0.012 0.013,-0.025 0.016,-0.041 V 2.089 C 110.921,2.073 110.916,2.06 110.908,2.048 l -0.3,-0.297 c -0.013,-0.01 -0.026,-0.016 -0.041,-0.019 h -1.05 z"
   id="path777" />
    </g>
    <g
   id="POWER"
   gorn="0.2.8">
      <path
   fill="#ffffff"
   d="m 64.296643,25.154638 c 0.085,-0.083 0.186,-0.124 0.304,-0.124 h 0.192 c 0.118,0 0.219,0.041 0.304,0.124 l 0.251,0.251 c 0.083,0.085 0.124,0.186 0.124,0.304 v 0.871 h 0.967 c 0.054,0 0.1,0.02 0.138,0.058 0.039,0.038 0.058,0.083 0.058,0.135 0,0.054 -0.019,0.1 -0.058,0.138 -0.038,0.038 -0.084,0.058 -0.138,0.058 h -2.322 c -0.054,0 -0.1,-0.02 -0.138,-0.058 -0.038,-0.038 -0.057,-0.084 -0.057,-0.138 v -1.063 c 0,-0.118 0.042,-0.219 0.124,-0.304 z m 0.493,0.264 h -0.187 c -0.012,0.002 -0.024,0.006 -0.034,0.012 l -0.248,0.248 c -0.007,0.011 -0.013,0.021 -0.015,0.034 v 0.868 h 0.781 v -0.868 c -0.002,-0.013 -0.008,-0.023 -0.015,-0.034 l -0.248,-0.248 c -0.01,-0.007 -0.022,-0.01 -0.034,-0.012 z"
   id="path780" />
      <path
   fill="#ffffff"
   d="m 64.045643,23.080638 0.251,-0.251 c 0.085,-0.083 0.186,-0.124 0.304,-0.124 h 1.355 c 0.117,0 0.219,0.041 0.304,0.124 l 0.251,0.251 c 0.082,0.085 0.124,0.186 0.124,0.304 v 0.58 c 0,0.117 -0.042,0.219 -0.124,0.304 l -0.252,0.25 c -0.085,0.083 -0.187,0.124 -0.304,0.124 h -1.355 c -0.118,0 -0.219,-0.041 -0.304,-0.124 l -0.25,-0.251 c -0.083,-0.085 -0.124,-0.187 -0.124,-0.304 v -0.58 c 0,-0.118 0.042,-0.218 0.124,-0.303 z m 1.908,0.012 h -1.35 c -0.012,0.002 -0.023,0.007 -0.034,0.016 l -0.249,0.244 c -0.007,0.011 -0.013,0.021 -0.015,0.034 v 0.574 c 0.002,0.013 0.008,0.023 0.015,0.034 l 0.248,0.248 c 0.01,0.006 0.021,0.01 0.034,0.012 h 1.349 c 0.013,-0.002 0.024,-0.006 0.034,-0.012 l 0.248,-0.248 c 0.008,-0.011 0.013,-0.022 0.016,-0.034 v -0.576 c -0.003,-0.013 -0.008,-0.024 -0.014,-0.034 l -0.247,-0.244 c -0.011,-0.008 -0.022,-0.012 -0.035,-0.014 z"
   id="path782" />
      <path
   fill="#ffffff"
   d="m 63.921643,20.572638 c 0,-0.052 0.019,-0.097 0.057,-0.135 0.039,-0.039 0.084,-0.058 0.138,-0.058 h 2.322 c 0.054,0 0.1,0.019 0.138,0.058 0.039,0.038 0.058,0.083 0.058,0.135 0,0.058 -0.021,0.105 -0.062,0.143 l -0.686,0.632 0.686,0.636 c 0.041,0.037 0.062,0.085 0.062,0.143 0,0.052 -0.019,0.097 -0.058,0.135 -0.038,0.036 -0.084,0.056 -0.138,0.056 h -2.322 c -0.054,0 -0.1,-0.02 -0.138,-0.058 -0.038,-0.038 -0.057,-0.084 -0.057,-0.138 0,-0.052 0.019,-0.097 0.057,-0.135 0.039,-0.038 0.084,-0.058 0.138,-0.058 h 1.892 l -0.475,-0.44 c -0.042,-0.038 -0.062,-0.085 -0.062,-0.144 0,-0.056 0.021,-0.103 0.061,-0.14 l 0.476,-0.437 h -1.891 c -0.054,0 -0.1,-0.02 -0.138,-0.058 -0.039,-0.037 -0.058,-0.083 -0.058,-0.137 z"
   id="path784" />
      <path
   fill="#ffffff"
   d="m 64.305643,18.248638 v 1.357 h 0.778 v -0.971 c 0,-0.051 0.019,-0.096 0.057,-0.135 0.038,-0.038 0.083,-0.057 0.134,-0.057 0.053,0 0.099,0.019 0.137,0.057 0.038,0.039 0.057,0.084 0.057,0.135 v 0.971 h 0.782 v -1.357 c 0,-0.052 0.019,-0.097 0.057,-0.135 0.037,-0.039 0.082,-0.058 0.133,-0.058 0.054,0 0.1,0.019 0.138,0.058 0.038,0.038 0.057,0.083 0.057,0.135 v 1.549 c 0,0.054 -0.019,0.1 -0.058,0.138 -0.038,0.038 -0.084,0.058 -0.138,0.058 h -2.322 c -0.054,0 -0.1,-0.02 -0.138,-0.058 -0.039,-0.038 -0.058,-0.084 -0.058,-0.138 v -1.55 c 0,-0.052 0.019,-0.097 0.057,-0.135 0.038,-0.039 0.083,-0.058 0.137,-0.058 0.051,0 0.096,0.019 0.134,0.058 0.037,0.039 0.056,0.084 0.056,0.136 z"
   id="path786" />
      <path
   fill="#ffffff"
   d="m 66.441643,15.730638 c 0.052,0 0.097,0.019 0.135,0.058 0.039,0.038 0.058,0.083 0.058,0.135 0,0.054 -0.019,0.1 -0.056,0.139 l -1.107,1.104 v 0.114 h 0.967 c 0.054,0 0.1,0.02 0.138,0.058 0.039,0.038 0.058,0.083 0.058,0.135 0,0.054 -0.019,0.1 -0.058,0.138 -0.038,0.038 -0.084,0.058 -0.138,0.058 h -2.322 c -0.054,0 -0.1,-0.02 -0.138,-0.058 -0.038,-0.038 -0.057,-0.084 -0.057,-0.138 v -1.064 c 0,-0.118 0.042,-0.219 0.124,-0.304 l 0.251,-0.251 c 0.085,-0.083 0.186,-0.124 0.304,-0.124 h 0.192 c 0.118,0 0.219,0.041 0.304,0.124 l 0.251,0.251 c 0.083,0.085 0.124,0.186 0.124,0.304 v 0.211 l 0.832,-0.834 c 0.038,-0.037 0.084,-0.056 0.138,-0.056 z m -1.357,1.55 v -0.868 c -0.002,-0.013 -0.007,-0.023 -0.016,-0.034 l -0.245,-0.248 c -0.01,-0.006 -0.021,-0.01 -0.034,-0.012 h -0.186 c -0.013,0.002 -0.024,0.006 -0.034,0.012 l -0.245,0.248 c -0.008,0.011 -0.013,0.021 -0.016,0.034 v 0.868 z"
   id="path788" />
    </g>
  </g>
  <g
   id="Components"
   gorn="0.3">
    <g
   id="UART"
   gorn="0.3.0">
      <g
   id="Legs"
   gorn="0.3.0.0">
        <g
   id="g806">
          <line
   fill="none"
   stroke-linecap="round"
   stroke-width="1"
   y1="26.719999"
   y2="28.138"
   x1="78.429001"
   stroke="#cccccc"
   x2="78.429001"
   id="line792" />
          <line
   fill="none"
   stroke-linecap="round"
   stroke-width="1"
   y1="26.719999"
   y2="28.138"
   x1="79.857002"
   stroke="#cccccc"
   x2="79.857002"
   id="line794" />
          <line
   fill="none"
   stroke-linecap="round"
   stroke-width="1"
   y1="26.719999"
   y2="28.138"
   x1="81.285004"
   stroke="#cccccc"
   x2="81.285004"
   id="line796" />
          <line
   fill="none"
   stroke-linecap="round"
   stroke-width="1"
   y1="26.719999"
   y2="28.138"
   x1="82.709999"
   stroke="#cccccc"
   x2="82.709999"
   id="line798" />
          <line
   fill="none"
   stroke-linecap="round"
   stroke-width="1"
   y1="26.719999"
   y2="28.138"
   x1="84.138"
   stroke="#cccccc"
   x2="84.138"
   id="line800" />
          <line
   fill="none"
   stroke-linecap="round"
   stroke-width="1"
   y1="26.719999"
   y2="28.138"
   x1="85.566002"
   stroke="#cccccc"
   x2="85.566002"
   id="line802" />
          <line
   fill="none"
   stroke-linecap="round"
   stroke-width="1"
   y1="26.719999"
   y2="28.138"
   x1="86.991997"
   stroke="#cccccc"
   x2="86.991997"
   id="line804" />
        </g>
        <g
   id="g822">
          <line
   fill="none"
   stroke-linecap="round"
   stroke-width="1"
   y1="11.13"
   y2="12.548"
   x1="78.429001"
   stroke="#cccccc"
   x2="78.429001"
   id="line808" />
          <line
   fill="none"
   stroke-linecap="round"
   stroke-width="1"
   y1="11.13"
   y2="12.548"
   x1="79.857002"
   stroke="#cccccc"
   x2="79.857002"
   id="line810" />
          <line
   fill="none"
   stroke-linecap="round"
   stroke-width="1"
   y1="11.13"
   y2="12.548"
   x1="81.285004"
   stroke="#cccccc"
   x2="81.285004"
   id="line812" />
          <line
   fill="none"
   stroke-linecap="round"
   stroke-width="1"
   y1="11.13"
   y2="12.548"
   x1="82.709999"
   stroke="#cccccc"
   x2="82.709999"
   id="line814" />
          <line
   fill="none"
   stroke-linecap="round"
   stroke-width="1"
   y1="11.13"
   y2="12.548"
   x1="84.138"
   stroke="#cccccc"
   x2="84.138"
   id="line816" />
          <line
   fill="none"
   stroke-linecap="round"
   stroke-width="1"
   y1="11.13"
   y2="12.548"
   x1="85.566002"
   stroke="#cccccc"
   x2="85.566002"
   id="line818" />
          <line
   fill="none"
   stroke-linecap="round"
   stroke-width="1"
   y1="11.13"
   y2="12.548"
   x1="86.991997"
   stroke="#cccccc"
   x2="86.991997"
   id="line820" />
        </g>
        <g
   id="g838">
          <line
   fill="none"
   stroke-linecap="round"
   stroke-width="1"
   y1="23.916"
   y2="23.916"
   x1="89.796997"
   stroke="#cccccc"
   x2="91.214996"
   id="line824" />
          <line
   fill="none"
   stroke-linecap="round"
   stroke-width="1"
   y1="22.489"
   y2="22.489"
   x1="89.796997"
   stroke="#cccccc"
   x2="91.214996"
   id="line826" />
          <line
   fill="none"
   stroke-linecap="round"
   stroke-width="1"
   y1="21.061001"
   y2="21.061001"
   x1="89.796997"
   stroke="#cccccc"
   x2="91.214996"
   id="line828" />
          <line
   fill="none"
   stroke-linecap="round"
   stroke-width="1"
   y1="19.634001"
   y2="19.634001"
   x1="89.796997"
   stroke="#cccccc"
   x2="91.214996"
   id="line830" />
          <line
   fill="none"
   stroke-linecap="round"
   stroke-width="1"
   y1="18.208"
   y2="18.208"
   x1="89.796997"
   stroke="#cccccc"
   x2="91.214996"
   id="line832" />
          <line
   fill="none"
   stroke-linecap="round"
   stroke-width="1"
   y1="16.780001"
   y2="16.780001"
   x1="89.796997"
   stroke="#cccccc"
   x2="91.214996"
   id="line834" />
          <line
   fill="none"
   stroke-linecap="round"
   stroke-width="1"
   y1="15.353"
   y2="15.353"
   x1="89.796997"
   stroke="#cccccc"
   x2="91.214996"
   id="line836" />
        </g>
        <g
   id="g854">
          <line
   fill="none"
   stroke-linecap="round"
   stroke-width="1"
   y1="23.916"
   y2="23.916"
   x1="74.207001"
   stroke="#cccccc"
   x2="75.625"
   id="line840" />
          <line
   fill="none"
   stroke-linecap="round"
   stroke-width="1"
   y1="22.489"
   y2="22.489"
   x1="74.207001"
   stroke="#cccccc"
   x2="75.625"
   id="line842" />
          <line
   fill="none"
   stroke-linecap="round"
   stroke-width="1"
   y1="21.061001"
   y2="21.061001"
   x1="74.207001"
   stroke="#cccccc"
   x2="75.625"
   id="line844" />
          <line
   fill="none"
   stroke-linecap="round"
   stroke-width="1"
   y1="19.634001"
   y2="19.634001"
   x1="74.207001"
   stroke="#cccccc"
   x2="75.625"
   id="line846" />
          <line
   fill="none"
   stroke-linecap="round"
   stroke-width="1"
   y1="18.208"
   y2="18.208"
   x1="74.207001"
   stroke="#cccccc"
   x2="75.625"
   id="line848" />
          <line
   fill="none"
   stroke-linecap="round"
   stroke-width="1"
   y1="16.780001"
   y2="16.780001"
   x1="74.207001"
   stroke="#cccccc"
   x2="75.625"
   id="line850" />
          <line
   fill="none"
   stroke-linecap="round"
   stroke-width="1"
   y1="15.353"
   y2="15.353"
   x1="74.207001"
   stroke="#cccccc"
   x2="75.625"
   id="line852" />
        </g>
      </g>
      <path
   fill="none"
   stroke-width="0.5"
   d="m 89.797,26.58 c 0,0.078 -0.063,0.141 -0.142,0.141 h -13.89 c -0.078,0 -0.142,-0.062 -0.142,-0.141 V 12.69 c 0,-0.078 0.063,-0.142 0.142,-0.142 h 13.89 c 0.078,0 0.142,0.063 0.142,0.142 z"
   stroke="#8c8c8c"
   id="path857" />
      <path
   fill="#363d44"
   d="m 89.797,26.58 c 0,0.078 -0.063,0.141 -0.142,0.141 h -13.89 c -0.078,0 -0.142,-0.062 -0.142,-0.141 V 12.69 c 0,-0.078 0.063,-0.142 0.142,-0.142 h 13.89 c 0.078,0 0.142,0.063 0.142,0.142 z"
   id="path859" />
      <circle
   fill="#36434c"
   r="0.70899999"
   cx="77.583"
   cy="14.465"
   id="circle861" />
      <path
   fill="none"
   stroke-width="0.25"
   stroke-linecap="round"
   d="m 89.797,26.58 c 0,0.078 -0.063,0.141 -0.142,0.141 h -13.89 c -0.078,0 -0.142,-0.062 -0.142,-0.141"
   stroke="#141719"
   id="path863" />
      <line
   fill="none"
   stroke-width="0.25"
   stroke-linecap="round"
   y1="12.689"
   y2="26.58"
   x1="89.796997"
   stroke="#4c4c4c"
   x2="89.796997"
   id="line865" />
      <line
   fill="none"
   stroke-width="0.25"
   stroke-linecap="round"
   y1="26.58"
   y2="12.689"
   x1="75.625"
   stroke="#4c4c4c"
   x2="75.625"
   id="line867" />
      <path
   fill="none"
   stroke-width="0.25"
   stroke-linecap="round"
   d="m 75.625,12.689 c 0,-0.078 0.063,-0.142 0.142,-0.142 h 13.89 c 0.078,0 0.142,0.063 0.142,0.142"
   stroke="#666666"
   id="path869" />
    </g>
    <g
   id="g894">
      
      
      <g
   id="g892">
        
        
        
        
        
        
        
        
      </g>
    </g>
    <g
   id="g918">
      
      
      <g
   id="g916">
        
        
        
        
        
        
        
        
      </g>
    </g>
    <g
   id="g950">
      
      
      <g
   id="g948">
        <g
   id="g940">
          
          
          
          
          
          
          
          
        </g>
        <g
   transform="translate(65.1362,7.2524)"
   id="g946">
          <g
   id="g944">
            
          </g>
        </g>
      </g>
    </g>
    <g
   id="g982">
      
      
      <g
   id="g980">
        <g
   id="g972">
          
          
          
          
          
          
          
          
        </g>
        <g
   transform="translate(65.1362,3.3257)"
   id="g978">
          <g
   id="g976">
            
          </g>
        </g>
      </g>
    </g>
    <g
   id="g1014">
      
      
      <g
   id="g1012">
        <g
   id="g1004">
          
          
          
          
          
          
          
          
        </g>
        <g
   transform="translate(65.1104,21.4233)"
   id="g1010">
          <g
   id="g1008">
            
          </g>
        </g>
      </g>
    </g>
    <g
   id="g1046">
      <rect
   fill="#8c8c8c"
   height="2.2679999"
   width="2.2690001"
   x="92.917999"
   y="22.73"
   id="rect1016" />
      <rect
   fill="#8c8c8c"
   height="2.2679999"
   width="2.27"
   x="98.047997"
   y="22.73"
   id="rect1018" />
      <g
   id="g1044">
        <g
   id="g1036">
          <path
   fill="#dddddd"
   d="m 94.765,24.923 c -0.146,0 -0.268,-0.117 -0.268,-0.266 v -1.59 c 0,-0.146 0.121,-0.266 0.268,-0.266 h 3.709 c 0.146,0 0.266,0.119 0.266,0.266 v 1.59 c 0,0.148 -0.119,0.266 -0.266,0.266 z"
   id="path1020" />
          <path
   fill="none"
   stroke-width="0.15"
   stroke-linecap="round"
   d="m 98.74,24.658 c 0,0.148 -0.119,0.266 -0.266,0.266 h -3.709 c -0.146,0 -0.268,-0.117 -0.268,-0.266"
   stroke-linejoin="round"
   stroke="#666666"
   id="path1022" />
          <line
   fill="none"
   stroke-width="0.15"
   stroke-linecap="round"
   stroke-linejoin="round"
   y1="24.658001"
   y2="23.068001"
   x1="94.498001"
   stroke="#a6a6a6"
   x2="94.498001"
   id="line1024" />
          <line
   fill="none"
   stroke-width="0.15"
   stroke-linecap="round"
   stroke-linejoin="round"
   y1="23.068001"
   y2="24.658001"
   x1="98.739998"
   stroke="#a6a6a6"
   x2="98.739998"
   id="line1026" />
          <path
   fill="none"
   stroke-width="0.15"
   stroke-linecap="round"
   d="m 94.498,23.068 c 0,-0.146 0.121,-0.266 0.268,-0.266 h 3.709 c 0.146,0 0.266,0.119 0.266,0.266"
   stroke-linejoin="round"
   stroke="#eeeeee"
   id="path1028" />
          <rect
   fill="#3d3d3d"
   height="2.1210001"
   width="2.3380001"
   x="95.441002"
   y="22.802"
   id="rect1030" />
          <line
   fill="none"
   stroke-width="0.15"
   y1="22.802"
   y2="22.802"
   x1="97.778999"
   stroke="#666666"
   x2="95.441002"
   id="line1032" />
          <line
   fill="none"
   stroke-width="0.15"
   y1="24.923"
   y2="24.923"
   x1="97.778999"
   stroke="#121212"
   x2="95.441002"
   id="line1034" />
        </g>
        <g
   transform="translate(95.6929,24.1636)"
   id="g1042">
          <g
   id="g1040">
            <text
   fill="#eeeeee"
   font-family="OCRA"
   font-size="0.88px"
   id="text1038">102</text>
          </g>
        </g>
      </g>
    </g>
    <g
   id="g1078">
      <rect
   fill="#8c8c8c"
   height="2.2679999"
   width="2.2690001"
   x="92.917999"
   y="17.709"
   id="rect1048" />
      <rect
   fill="#8c8c8c"
   height="2.2679999"
   width="2.27"
   x="98.047997"
   y="17.709"
   id="rect1050" />
      <g
   id="g1076">
        <g
   id="g1068">
          <path
   fill="#dddddd"
   d="m 94.765,19.902 c -0.146,0 -0.268,-0.117 -0.268,-0.266 v -1.59 c 0,-0.146 0.121,-0.266 0.268,-0.266 h 3.709 c 0.146,0 0.266,0.119 0.266,0.266 v 1.59 c 0,0.148 -0.119,0.266 -0.266,0.266 z"
   id="path1052" />
          <path
   fill="none"
   stroke-width="0.15"
   stroke-linecap="round"
   d="m 98.74,19.637 c 0,0.148 -0.119,0.266 -0.266,0.266 h -3.709 c -0.146,0 -0.268,-0.117 -0.268,-0.266"
   stroke-linejoin="round"
   stroke="#666666"
   id="path1054" />
          <line
   fill="none"
   stroke-width="0.15"
   stroke-linecap="round"
   stroke-linejoin="round"
   y1="19.636999"
   y2="18.047001"
   x1="94.498001"
   stroke="#a6a6a6"
   x2="94.498001"
   id="line1056" />
          <line
   fill="none"
   stroke-width="0.15"
   stroke-linecap="round"
   stroke-linejoin="round"
   y1="18.047001"
   y2="19.636999"
   x1="98.739998"
   stroke="#a6a6a6"
   x2="98.739998"
   id="line1058" />
          <path
   fill="none"
   stroke-width="0.15"
   stroke-linecap="round"
   d="m 94.498,18.047 c 0,-0.146 0.121,-0.266 0.268,-0.266 h 3.709 c 0.146,0 0.266,0.119 0.266,0.266"
   stroke-linejoin="round"
   stroke="#eeeeee"
   id="path1060" />
          <rect
   fill="#3d3d3d"
   height="2.1210001"
   width="2.3380001"
   x="95.441002"
   y="17.781"
   id="rect1062" />
          <line
   fill="none"
   stroke-width="0.15"
   y1="17.781"
   y2="17.781"
   x1="97.778999"
   stroke="#666666"
   x2="95.441002"
   id="line1064" />
          <line
   fill="none"
   stroke-width="0.15"
   y1="19.902"
   y2="19.902"
   x1="97.778999"
   stroke="#121212"
   x2="95.441002"
   id="line1066" />
        </g>
        <g
   transform="translate(95.6929,19.1411)"
   id="g1074">
          <g
   id="g1072">
            <text
   fill="#eeeeee"
   font-family="OCRA"
   font-size="0.88px"
   id="text1070">102</text>
          </g>
        </g>
      </g>
    </g>
    <g
   id="LED_1_"
   gorn="0.3.8">
      
      
      <g
   id="g1108">
        <g
   id="g1088">
          <g
   id="g1086">
            
          </g>
        </g>
        
        
        
        
        
        <g
   id="g1104">
          
          
        </g>
        
      </g>
    </g>
    <g
   id="LED_2_"
   gorn="0.3.9">
      <rect
   fill="#8c8c8c"
   height="2.2679999"
   width="2.2690001"
   x="92.917999"
   y="12.688"
   id="rect1111" />
      <rect
   fill="#8c8c8c"
   height="2.2679999"
   width="2.27"
   x="98.047997"
   y="12.688"
   id="rect1113" />
      <g
   id="g1139">
        <g
   id="g1119">
          <g
   id="g1117">
            <path
   fill="#ffffff"
   d="m 98.227,13.814 c 0,-0.178 0.145,-0.322 0.322,-0.322 v -0.775 h -4.391 v 0.775 c 0.178,0 0.322,0.145 0.322,0.322 0,0.178 -0.145,0.323 -0.322,0.323 v 0.774 h 4.391 v -0.774 c -0.177,0 -0.322,-0.145 -0.322,-0.323 z"
   id="path1115" />
          </g>
        </g>
        <polyline
   points="97.565,13.039 97.565,12.716 98.549,12.716 97.565,13.039 97.565,13.039 "
   fill="#74ff9c"
   id="polyline1121" />
        <polyline
   points="97.565,14.588 97.565,14.911 98.549,14.911 97.565,14.588 97.565,14.588 "
   fill="#74ff9c"
   id="polyline1123" />
        <rect
   fill="none"
   height="2.1960001"
   width="2.7460001"
   stroke-width="0.1"
   x="94.981003"
   y="12.716"
   stroke="#eeeeee"
   id="rect1125" />
        <circle
   fill="#eeeeee"
   r="0.32300001"
   stroke-width="1"
   cx="96.353996"
   cy="13.831"
   stroke="#eeeeee"
   id="circle1127" />
        <rect
   fill="#eeeeee"
   height="2.1960001"
   width="2.4219999"
   stroke-width="0.1"
   x="95.142998"
   y="12.732"
   stroke="#eeeeee"
   id="rect1129" />
        <g
   id="g1135">
          <circle
   fill="#ababab"
   r="0.162"
   stroke-width="0.05"
   cx="96.353996"
   cy="13.831"
   stroke="#ababab"
   id="circle1131" />
          <circle
   fill="#eeeeee"
   r="0.079999998"
   cx="96.397003"
   cy="13.872"
   id="circle1133" />
        </g>
        <rect
   fill="#e5e5e5"
   height="0.32300001"
   width="2.4219999"
   x="95.142998"
   y="12.716"
   id="rect1137" />
      </g>
    </g>
    <g
   id="LED_3_"
   gorn="0.3.10">
      <rect
   fill="#8c8c8c"
   height="2.2679999"
   width="2.2690001"
   x="92.917999"
   y="27.75"
   id="rect1142" />
      <rect
   fill="#8c8c8c"
   height="2.2679999"
   width="2.27"
   x="98.047997"
   y="27.75"
   id="rect1144" />
      <g
   id="g1170">
        <g
   id="g1150">
          <g
   id="g1148">
            <path
   fill="#ffffff"
   d="m 98.227,28.876 c 0,-0.178 0.145,-0.322 0.322,-0.322 v -0.775 h -4.391 v 0.775 c 0.178,0 0.322,0.145 0.322,0.322 0,0.177 -0.145,0.322 -0.322,0.322 v 0.774 h 4.391 v -0.774 c -0.177,0.001 -0.322,-0.144 -0.322,-0.322 z"
   id="path1146" />
          </g>
        </g>
        <polyline
   points="97.565,28.101 97.565,27.779 98.549,27.779 97.565,28.101 97.565,28.101 "
   fill="#74ff9c"
   id="polyline1152" />
        <polyline
   points="97.565,29.651 97.565,29.973 98.549,29.973 97.565,29.651 97.565,29.651 "
   fill="#74ff9c"
   id="polyline1154" />
        <rect
   fill="none"
   height="2.1949999"
   width="2.7460001"
   stroke-width="0.1"
   x="94.981003"
   y="27.778999"
   stroke="#eeeeee"
   id="rect1156" />
        <circle
   fill="#eeeeee"
   r="0.32300001"
   stroke-width="1"
   cx="96.353996"
   cy="28.893"
   stroke="#eeeeee"
   id="circle1158" />
        <rect
   fill="#eeeeee"
   height="2.1949999"
   width="2.4219999"
   stroke-width="0.1"
   x="95.142998"
   y="27.794001"
   stroke="#eeeeee"
   id="rect1160" />
        <g
   id="g1166">
          <circle
   fill="#ababab"
   r="0.161"
   stroke-width="0.05"
   cx="96.353996"
   cy="28.893"
   stroke="#ababab"
   id="circle1162" />
          <circle
   fill="#eeeeee"
   r="0.081"
   cx="96.397003"
   cy="28.934999"
   id="circle1164" />
        </g>
        <rect
   fill="#e5e5e5"
   height="0.322"
   width="2.4219999"
   x="95.142998"
   y="27.778999"
   id="rect1168" />
      </g>
    </g>
    <g
   id="C1"
   gorn="0.3.11">
      <path
   fill="#8c8c8c"
   d="m 72.425,33.289 c 0,0.067 -0.055,0.121 -0.119,0.121 h -2.598 c -0.064,0 -0.119,-0.054 -0.119,-0.121 v -3.16 c 0,-0.067 0.055,-0.121 0.119,-0.121 h 2.598 c 0.064,0 0.119,0.054 0.119,0.121 z"
   id="path1173" />
      
      <g
   id="g1193">
        
        
        
        <line
   fill="none"
   stroke-width="0.15"
   stroke-linecap="round"
   stroke-linejoin="round"
   y1="30.555"
   y2="32.860001"
   x1="70.475998"
   stroke="#a6a6a6"
   x2="70.475998"
   id="line1183" />
        
        
        
        
      </g>
    </g>
    <g
   id="g1222">
      <path
   fill="#8c8c8c"
   d="m 69.589,36.785 c 0,-0.067 0.055,-0.121 0.119,-0.121 h 2.598 c 0.064,0 0.119,0.054 0.119,0.121 v 3.16 c 0,0.067 -0.055,0.121 -0.119,0.121 h -2.598 c -0.064,0 -0.119,-0.054 -0.119,-0.121 z"
   id="path1196" />
      
      <g
   id="g1220">
        
        
        
        
        <line
   fill="none"
   stroke-width="0.1"
   y1="36.806"
   y2="39.923"
   x1="70.504997"
   stroke="#a6a6a6"
   x2="70.504997"
   id="line1208" />
        
        
        
        <g
   id="g1218">
          
        </g>
      </g>
    </g>
  </g>
  <g
   id="pins"
   gorn="0.4">
    <g
   id="connector24pin_19_"
   gorn="0.4.0">
      <g
   id="g1226">
        <path
   fill="#ababab"
   d="m 114.539,0.541 c -1.37,0 -2.48,1.108 -2.48,2.48 0,1.37 1.11,2.48 2.48,2.48 1.37,0 2.48,-1.11 2.48,-2.48 0,-1.372 -1.11,-2.48 -2.48,-2.48 z m 0,3.896 c -0.783,0 -1.417,-0.633 -1.417,-1.417 0,-0.782 0.634,-1.417 1.417,-1.417 0.783,0 1.418,0.635 1.418,1.417 0,0.784 -0.635,1.417 -1.418,1.417 z"
   id="connector9pin"
   gorn="0.4.0.0.0" />
      </g>
    </g>
    <g
   id="connector24pin_11_"
   gorn="0.4.1">
      <g
   id="g1231">
        <path
   fill="#ababab"
   d="m 58.738,8.504 c -1.37,0 -2.48,1.108 -2.48,2.48 0,1.37 1.11,2.48 2.48,2.48 1.37,0 2.48,-1.11 2.48,-2.48 10e-4,-1.371 -1.11,-2.48 -2.48,-2.48 z m 0,3.896 c -0.783,0 -1.417,-0.633 -1.417,-1.417 0,-0.782 0.634,-1.417 1.417,-1.417 0.783,0 1.418,0.635 1.418,1.417 0,0.784 -0.635,1.417 -1.418,1.417 z"
   id="path1229" />
      </g>
    </g>
    <g
   id="connector24pin_12_"
   gorn="0.4.2">
      <g
   id="g1236">
        <path
   fill="#ababab"
   d="m 58.738,15.705 c -1.37,0 -2.48,1.108 -2.48,2.48 0,1.37 1.11,2.48 2.48,2.48 1.37,0 2.48,-1.11 2.48,-2.48 10e-4,-1.372 -1.11,-2.48 -2.48,-2.48 z m 0,3.895 c -0.783,0 -1.417,-0.633 -1.417,-1.417 0,-0.782 0.634,-1.417 1.417,-1.417 0.783,0 1.418,0.635 1.418,1.417 0,0.784 -0.635,1.417 -1.418,1.417 z"
   id="path1234" />
      </g>
    </g>
    <g
   id="connector24pin_13_"
   gorn="0.4.3">
      <g
   id="g1241">
        <path
   fill="#ababab"
   d="m 58.738,21.378 c -1.37,0 -2.48,1.109 -2.48,2.481 0,1.37 1.11,2.48 2.48,2.48 1.37,0 2.48,-1.11 2.48,-2.48 10e-4,-1.372 -1.11,-2.481 -2.48,-2.481 z m 0,3.896 c -0.783,0 -1.417,-0.633 -1.417,-1.417 0,-0.782 0.634,-1.417 1.417,-1.417 0.783,0 1.418,0.635 1.418,1.417 0,0.784 -0.635,1.417 -1.418,1.417 z"
   id="path1239" />
      </g>
    </g>
    <g
   id="connector24pin_14_"
   gorn="0.4.4">
      <g
   id="g1246">
        <path
   fill="#ababab"
   d="m 58.738,28.578 c -1.37,0 -2.48,1.108 -2.48,2.48 0,1.37 1.11,2.48 2.48,2.48 1.37,0 2.481,-1.11 2.481,-2.48 0,-1.372 -1.111,-2.48 -2.481,-2.48 z m 0,3.895 c -0.783,0 -1.417,-0.633 -1.417,-1.417 0,-0.782 0.634,-1.417 1.417,-1.417 0.783,0 1.418,0.635 1.418,1.417 10e-4,0.784 -0.635,1.417 -1.418,1.417 z"
   id="path1244" />
      </g>
    </g>
    <g
   id="connector24pin_15_"
   gorn="0.4.5">
      <g
   id="g1250">
        <path
   fill="#ababab"
   d="m 78.535,36.542 c -1.369,0 -2.48,1.108 -2.48,2.48 0,1.37 1.111,2.48 2.48,2.48 1.371,0 2.48,-1.11 2.48,-2.48 0,-1.372 -1.109,-2.48 -2.48,-2.48 z m 0,3.895 c -0.783,0 -1.416,-0.633 -1.416,-1.417 0,-0.782 0.633,-1.417 1.416,-1.417 0.783,0 1.418,0.635 1.418,1.417 0,0.784 -0.635,1.417 -1.418,1.417 z"
   id="connector0pin"
   gorn="0.4.5.0.0" />
      </g>
    </g>
    <g
   id="connector24pin_16_"
   gorn="0.4.6">
      <g
   id="g1254">
        <path
   fill="#ababab"
   d="m 85.734,36.542 c -1.37,0 -2.48,1.108 -2.48,2.48 0,1.37 1.11,2.48 2.48,2.48 1.37,0 2.48,-1.11 2.48,-2.48 0,-1.372 -1.11,-2.48 -2.48,-2.48 z m 0,3.895 c -0.783,0 -1.417,-0.633 -1.417,-1.417 0,-0.782 0.634,-1.417 1.417,-1.417 0.783,0 1.418,0.635 1.418,1.417 0,0.784 -0.635,1.417 -1.418,1.417 z"
   id="connector1pin"
   gorn="0.4.6.0.0" />
      </g>
    </g>
    <g
   id="connector24pin_17_"
   gorn="0.4.7">
      <g
   id="g1258">
        <path
   fill="#ababab"
   d="m 92.933,36.542 c -1.371,0 -2.48,1.108 -2.48,2.48 0,1.37 1.109,2.48 2.48,2.48 1.369,0 2.48,-1.11 2.48,-2.48 0.001,-1.372 -1.111,-2.48 -2.48,-2.48 z m 0,3.895 c -0.783,0 -1.418,-0.633 -1.418,-1.417 0,-0.782 0.635,-1.417 1.418,-1.417 0.783,0 1.418,0.635 1.418,1.417 0,0.784 -0.635,1.417 -1.418,1.417 z"
   id="connector2pin"
   gorn="0.4.7.0.0" />
      </g>
    </g>
    <g
   id="connector24pin_18_"
   gorn="0.4.8">
      <g
   id="g1262">
        <path
   fill="#ababab"
   d="m 100.136,36.542 c -1.37,0 -2.48,1.108 -2.48,2.48 0,1.37 1.11,2.48 2.48,2.48 1.37,0 2.48,-1.11 2.48,-2.48 0.001,-1.372 -1.11,-2.48 -2.48,-2.48 z m 0,3.895 c -0.783,0 -1.417,-0.633 -1.417,-1.417 0,-0.782 0.634,-1.417 1.417,-1.417 0.783,0 1.418,0.635 1.418,1.417 0,0.784 -0.635,1.417 -1.418,1.417 z"
   id="connector3pin"
   gorn="0.4.8.0.0" />
      </g>
    </g>
    <g
   id="connector24pin_9_"
   gorn="0.4.9">
      <g
   id="g1266">
        <path
   fill="#ababab"
   d="m 114.539,36.542 c -1.37,0 -2.48,1.108 -2.48,2.48 0,1.37 1.11,2.48 2.48,2.48 1.37,0 2.48,-1.11 2.48,-2.48 0,-1.372 -1.11,-2.48 -2.48,-2.48 z m 0,3.895 c -0.783,0 -1.417,-0.633 -1.417,-1.417 0,-0.782 0.634,-1.417 1.417,-1.417 0.783,0 1.418,0.635 1.418,1.417 0,0.784 -0.635,1.417 -1.418,1.417 z"
   id="connector4pin"
   gorn="0.4.9.0.0"
   style="fill:#ffcc00" />
      </g>
    </g>
    <g
   id="connector24pin_4_"
   gorn="0.4.10">
      <g
   id="g1270">
        <path
   fill="#ababab"
   d="m 114.539,7.741 c -1.37,0 -2.48,1.108 -2.48,2.48 0,1.37 1.11,2.48 2.48,2.48 1.37,0 2.48,-1.11 2.48,-2.48 0,-1.371 -1.11,-2.48 -2.48,-2.48 z m 0,3.896 c -0.783,0 -1.417,-0.633 -1.417,-1.417 0,-0.782 0.634,-1.417 1.417,-1.417 0.783,0 1.418,0.635 1.418,1.417 0,0.784 -0.635,1.417 -1.418,1.417 z"
   id="connector8pin"
   gorn="0.4.10.0.0"
   style="fill:#ffcc00" />
      </g>
    </g>
    <g
   id="connector24pin_1_"
   gorn="0.4.11">
      <g
   id="g1274">
        <path
   fill="#ababab"
   d="m 114.539,14.941 c -1.37,0 -2.48,1.108 -2.48,2.48 0,1.37 1.11,2.48 2.48,2.48 1.37,0 2.48,-1.11 2.48,-2.48 0,-1.371 -1.11,-2.48 -2.48,-2.48 z m 0,3.896 c -0.783,0 -1.417,-0.633 -1.417,-1.417 0,-0.782 0.634,-1.417 1.417,-1.417 0.783,0 1.418,0.635 1.418,1.417 0,0.784 -0.635,1.417 -1.418,1.417 z"
   id="connector7pin"
   gorn="0.4.11.0.0"
   style="fill:#ffcc00" />
      </g>
    </g>
    <g
   id="connector24pin_2_"
   gorn="0.4.12">
      <g
   id="g1278">
        <path
   fill="#ababab"
   d="m 114.539,22.141 c -1.37,0 -2.48,1.108 -2.48,2.48 0,1.37 1.11,2.48 2.48,2.48 1.37,0 2.48,-1.11 2.48,-2.48 0,-1.371 -1.11,-2.48 -2.48,-2.48 z m 0,3.896 c -0.783,0 -1.417,-0.633 -1.417,-1.417 0,-0.782 0.634,-1.417 1.417,-1.417 0.783,0 1.418,0.635 1.418,1.417 0,0.784 -0.635,1.417 -1.418,1.417 z"
   id="connector6pin"
   gorn="0.4.12.0.0"
   style="fill:#ffcc00" />
      </g>
    </g>
    <g
   id="connector24pin_3_"
   gorn="0.4.13">
      <g
   id="g1282">
        <path
   fill="#ababab"
   d="m 114.538,29.341 c -1.37,0 -2.48,1.108 -2.48,2.48 0,1.37 1.11,2.48 2.48,2.48 1.37,0 2.481,-1.11 2.481,-2.48 0,-1.371 -1.111,-2.48 -2.481,-2.48 z m 0,3.896 c -0.783,0 -1.417,-0.633 -1.417,-1.417 0,-0.782 0.634,-1.417 1.417,-1.417 0.783,0 1.419,0.635 1.419,1.417 0,0.784 -0.636,1.417 -1.419,1.417 z"
   id="connector5pin"
   gorn="0.4.13.0.0"
   style="fill:#ffcc00" />
      </g>
    </g>
    <g
   id="connector24pin_5_"
   gorn="0.4.14">
      <g
   id="g1286">
        
      </g>
    </g>
    <g
   id="connector24pin_6_"
   gorn="0.4.15">
      <g
   id="g1290">
        <path
   fill="#ababab"
   d="m 85.734,0.541 c -1.37,0 -2.48,1.108 -2.48,2.48 0,1.37 1.11,2.48 2.48,2.48 1.37,0 2.48,-1.11 2.48,-2.48 0,-1.372 -1.11,-2.48 -2.48,-2.48 z m 0,3.896 c -0.783,0 -1.417,-0.633 -1.417,-1.417 0,-0.782 0.634,-1.417 1.417,-1.417 0.783,0 1.418,0.635 1.418,1.417 0,0.784 -0.635,1.417 -1.418,1.417 z"
   id="connector12pin"
   gorn="0.4.15.0.0" />
      </g>
    </g>
    <g
   id="connector24pin_7_"
   gorn="0.4.16"
   style="fill:#00ffff">
      <g
   id="g1294"
   style="fill:#00ffff">
        <path
   fill="#ababab"
   d="m 92.933,0.541 c -1.371,0 -2.48,1.108 -2.48,2.48 0,1.37 1.109,2.48 2.48,2.48 1.369,0 2.48,-1.11 2.48,-2.48 0.001,-1.372 -1.111,-2.48 -2.48,-2.48 z m 0,3.896 c -0.783,0 -1.418,-0.633 -1.418,-1.417 0,-0.782 0.635,-1.417 1.418,-1.417 0.783,0 1.418,0.635 1.418,1.417 0,0.784 -0.635,1.417 -1.418,1.417 z"
   id="connector11pin"
   gorn="0.4.16.0.0"
   style="fill:#00ffff" />
      </g>
    </g>
    <g
   id="connector24pin_8_"
   gorn="0.4.17">
      <g
   id="g1298">
        <path
   fill="#ababab"
   d="m 100.136,0.541 c -1.37,0 -2.48,1.108 -2.48,2.48 0,1.37 1.11,2.48 2.48,2.48 1.37,0 2.48,-1.11 2.48,-2.48 0.001,-1.372 -1.11,-2.48 -2.48,-2.48 z m 0,3.896 c -0.783,0 -1.417,-0.633 -1.417,-1.417 0,-0.782 0.634,-1.417 1.417,-1.417 0.783,0 1.418,0.635 1.418,1.417 0,0.784 -0.635,1.417 -1.418,1.417 z"
   id="connector10pin"
   gorn="0.4.17.0.0" />
      </g>
    </g>
  </g>
  <g
   id="USB_Pins"
   gorn="0.5">
    <g
   id="g1316">
      <path
   fill="#828282"
   d="M58.264,32.192h-3.719c-0.391,0-0.708-0.317-0.708-0.708v-0.851c0-0.392,0.317-0.709,0.708-0.709h3.719"
   id="path1302" />
      <path
   fill="#9B9B9B"
   d="M58.264,29.924h0.816c0.392,0,0.708,0.317,0.708,0.709v0.851c0,0.391-0.317,0.708-0.708,0.708h-0.816"
   id="path1304" />
      <path
   fill="#666666"
   d="M58.264,32.192l0.448-0.209h0.871c-0.128,0.129-0.306,0.209-0.502,0.209H58.264z"
   id="path1306" />
      <path
   fill="#666666"
   d="M54.045,31.985c0.128,0.128,0.305,0.207,0.5,0.207h3.719l-0.448-0.207H54.045z"
   id="path1308" />
      <path
   fill="#666666"
   d="M58.264,29.924h0.816c0.195,0,0.372,0.079,0.5,0.208v0.001h-0.869L58.264,29.924z"
   id="path1310" />
      <path
   fill="#E5E5E5"
   d="M58.264,29.924l-0.448,0.209h-3.772v-0.001c0.128-0.129,0.305-0.208,0.501-0.208H58.264z"
   id="path1312" />
      <polygon
   points="58.711,31.983 58.264,32.192 57.815,31.983 57.815,30.133 58.264,29.924 58.711,30.133 "
   fill="#E5E5E5"
   id="polygon1314" />
    </g>
    <g
   id="g1332">
      <path
   fill="#828282"
   d="M58.264,24.993h-3.719c-0.391,0-0.708-0.317-0.708-0.708v-0.851c0-0.392,0.317-0.709,0.708-0.709h3.719"
   id="path1318" />
      <path
   fill="#9B9B9B"
   d="M58.264,22.725h0.816c0.392,0,0.708,0.317,0.708,0.709v0.851c0,0.391-0.317,0.708-0.708,0.708h-0.816"
   id="path1320" />
      <path
   fill="#666666"
   d="M58.264,24.993l0.448-0.209h0.871c-0.128,0.129-0.306,0.209-0.502,0.209H58.264z"
   id="path1322" />
      <path
   fill="#666666"
   d="M54.045,24.786c0.128,0.128,0.305,0.207,0.5,0.207h3.719l-0.448-0.207H54.045z"
   id="path1324" />
      <path
   fill="#666666"
   d="M58.264,22.725h0.816c0.195,0,0.372,0.079,0.5,0.208v0.001h-0.869L58.264,22.725z"
   id="path1326" />
      <path
   fill="#E5E5E5"
   d="M58.264,22.725l-0.448,0.209h-3.772v-0.001c0.128-0.129,0.305-0.208,0.501-0.208H58.264z"
   id="path1328" />
      <polygon
   points="58.711,24.784 58.264,24.993 57.815,24.784 57.815,22.934 58.264,22.725 58.711,22.934 "
   fill="#E5E5E5"
   id="polygon1330" />
    </g>
    <g
   id="g1348">
      <path
   fill="#828282"
   d="M58.264,19.319h-3.719c-0.391,0-0.708-0.317-0.708-0.708V17.76c0-0.392,0.317-0.709,0.708-0.709h3.719"
   id="path1334" />
      <path
   fill="#9B9B9B"
   d="M58.264,17.051h0.816c0.392,0,0.708,0.317,0.708,0.709v0.851c0,0.391-0.317,0.708-0.708,0.708h-0.816"
   id="path1336" />
      <path
   fill="#666666"
   d="M58.264,19.319l0.448-0.209h0.871c-0.128,0.129-0.306,0.209-0.502,0.209H58.264z"
   id="path1338" />
      <path
   fill="#666666"
   d="M54.045,19.112c0.128,0.128,0.305,0.207,0.5,0.207h3.719l-0.448-0.207H54.045z"
   id="path1340" />
      <path
   fill="#666666"
   d="M58.264,17.051h0.816c0.195,0,0.372,0.079,0.5,0.208v0.001h-0.869L58.264,17.051z"
   id="path1342" />
      <path
   fill="#E5E5E5"
   d="M58.264,17.051l-0.448,0.209h-3.772v-0.001c0.128-0.129,0.305-0.208,0.501-0.208H58.264z"
   id="path1344" />
      <polygon
   points="58.711,19.11 58.264,19.319 57.815,19.11 57.815,17.26 58.264,17.051 58.711,17.26 "
   fill="#E5E5E5"
   id="polygon1346" />
    </g>
    <g
   id="g1364">
      <path
   fill="#828282"
   d="M58.264,12.119h-3.719c-0.391,0-0.708-0.317-0.708-0.708V10.56c0-0.392,0.317-0.709,0.708-0.709h3.719"
   id="path1350" />
      <path
   fill="#9B9B9B"
   d="M58.264,9.851h0.816c0.392,0,0.708,0.317,0.708,0.709v0.851c0,0.391-0.317,0.708-0.708,0.708h-0.816"
   id="path1352" />
      <path
   fill="#666666"
   d="M58.264,12.119l0.448-0.209h0.871c-0.128,0.129-0.306,0.209-0.502,0.209H58.264z"
   id="path1354" />
      <path
   fill="#666666"
   d="M54.045,11.912c0.128,0.128,0.305,0.207,0.5,0.207h3.719l-0.448-0.207H54.045z"
   id="path1356" />
      <path
   fill="#666666"
   d="M58.264,9.851h0.816c0.195,0,0.372,0.079,0.5,0.208v0.001h-0.869L58.264,9.851z"
   id="path1358" />
      <path
   fill="#E5E5E5"
   d="M58.264,9.851l-0.448,0.209h-3.772v-0.001c0.128-0.129,0.305-0.208,0.501-0.208H58.264z"
   id="path1360" />
      <polygon
   points="58.711,11.91 58.264,12.119 57.815,11.91 57.815,10.06 58.264,9.851 58.711,10.06 "
   fill="#E5E5E5"
   id="polygon1362" />
    </g>
  </g>
  <g
   id="USB-A"
   gorn="0.6">
    <g
   id="g1375">
      <rect
   fill="#9AA5A8"
   height="32.5"
   width="55.413"
   x="-0.094"
   y="5.091"
   id="rect1367" />
      <line
   fill="none"
   stroke-width="1.5"
   y1="5.091"
   y2="5.091"
   x1="-0.094"
   stroke="#EAEAEA"
   x2="55.319"
   id="line1369" />
      <line
   fill="none"
   stroke-width="1.5"
   y1="37.591"
   y2="37.591"
   x1="-0.094"
   stroke="#686868"
   x2="55.319"
   id="line1371" />
      <line
   fill="none"
   stroke-width="0.25"
   stroke-linecap="round"
   y1="36.924"
   y2="5.091"
   x1="0"
   stroke="#EAEAEA"
   x2="0"
   id="line1373" />
    </g>
    <g
   id="g1389">
      <path
   fill="#EAEAEA"
   d="M21.376,11.747c0-3.19-0.274-3.033-0.274-3.033c0-0.156-0.134-0.282-0.299-0.282c0,0-1.012-0.34-2.845-0.34s-2.8,0.34-2.8,0.34c-0.165,0-0.299,0.126-0.299,0.282c0,0-0.319,0-0.319,3.033s0.092,2.956,0.245,3.108c0.246,0.246,0.099,0.903,3.173,0.903c3.074,0,3.103-0.572,3.269-0.853C21.376,14.653,21.376,14.653,21.376,11.747z"
   id="path1377" />
      <path
   fill="#A3B5BF"
   d="M20.834,8.697c0-0.146-0.122-0.266-0.271-0.266h-5.126c-0.15,0-0.271,0.119-0.271,0.266v5.705c0,0.146,0.122,0.266,0.271,0.266h5.126c0.15,0,0.271-0.119,0.271-0.266V8.697z"
   id="path1379" />
      <g
   id="g1387">
        <rect
   fill="#3F3F3F"
   height="3.417"
   width="5.669"
   x="15.166"
   y="9.566"
   id="rect1381" />
        <rect
   fill="#7F7F7F"
   height="0.458"
   width="5.669"
   x="15.166"
   y="11.733"
   id="rect1383" />
        <rect
   fill="#BFBFBF"
   height="0.708"
   width="5.669"
   x="15.166"
   y="10.17"
   id="rect1385" />
      </g>
    </g>
    <g
   id="g1403">
      <path
   fill="#EAEAEA"
   d="M21.334,29.207c0-3.19-0.274-3.033-0.274-3.033c0-0.156-0.134-0.283-0.299-0.283c0,0-1.012-0.34-2.845-0.34s-2.8,0.34-2.8,0.34c-0.165,0-0.299,0.127-0.299,0.283c0,0-0.319,0-0.319,3.033s0.092,2.955,0.245,3.107c0.246,0.246,0.099,0.903,3.173,0.903c3.074,0,3.103-0.571,3.269-0.853C21.334,32.113,21.334,32.113,21.334,29.207z"
   id="path1391" />
      <path
   fill="#A3B5BF"
   d="M20.793,26.156c0-0.146-0.122-0.266-0.271-0.266h-5.126c-0.15,0-0.271,0.119-0.271,0.266v5.705c0,0.146,0.122,0.266,0.271,0.266h5.126c0.15,0,0.271-0.119,0.271-0.266V26.156z"
   id="path1393" />
      <g
   id="g1401">
        <rect
   fill="#3F3F3F"
   height="3.416"
   width="5.669"
   x="15.124"
   y="27.576"
   id="rect1395" />
        <rect
   fill="#7F7F7F"
   height="0.459"
   width="5.669"
   x="15.124"
   y="29.742"
   id="rect1397" />
        <rect
   fill="#BFBFBF"
   height="0.709"
   width="5.669"
   x="15.124"
   y="28.179"
   id="rect1399" />
      </g>
    </g>
    <circle
   fill="#CCCCCC"
   r="2.25"
   cx="50.021"
   cy="20.966"
   id="circle1405" />
    <path
   fill="none"
   stroke-width="0.5"
   stroke-linecap="round"
   d="M51.802,21.843c-0.324,0.656-1,1.107-1.781,1.107c-0.783,0-1.461-0.454-1.783-1.113"
   stroke="#F2F2F2"
   id="path1407" />
  </g>
<rect
   style="fill:#0000ff;fill-rule:evenodd;stroke-width:0.75"
   id="rect2777"
   width="5.4806066"
   height="4.3844852"
   x="75.974907"
   y="0.89059854" /><rect
   style="fill:#0000ff;fill-rule:evenodd;stroke-width:0.75"
   id="rect2886"
   width="36.857082"
   height="5.9601598"
   x="80.222382"
   y="0.27403033" /><rect
   style="fill:#000000;fill-rule:evenodd;stroke-width:0.75"
   id="rect2990"
   width="2.098"
   height="2.7079999"
   x="92.937004"
   y="4.5809999" /><rect
   style="fill:#00ffff;fill-rule:evenodd;stroke-width:0.75"
   id="rect3096"
   width="4.0893556e-06"
   height="2.7079997"
   x="92.937004"
   y="4.5809999" /><rect
   style="fill:#000000;fill-rule:evenodd;stroke-width:0.75"
   id="rect3098"
   width="2.0980036"
   height="1.487732e-07"
   x="92.937004"
   y="4.5809999" /><rect
   style="fill:#00ffff;fill-rule:evenodd;stroke-width:0.75"
   id="rect3100"
   width="7.199996"
   height="2.7079997"
   x="92.937004"
   y="4.5809999" /><rect
   style="fill:#0000ff;fill-rule:evenodd;stroke-width:0.75"
   id="rect3208"
   width="9.2953138"
   height="12.707946"
   x="92.917999"
   y="5.0010538" /><rect
   style="fill:#0000ff;fill-rule:evenodd;stroke-width:0.75"
   id="rect3210"
   width="9.2268057"
   height="17.914944"
   x="91.958893"
   y="17.229446" /><rect
   style="fill:#0000ff;fill-rule:evenodd;stroke-width:0.75"
   id="rect3212"
   width="27.882586"
   height="5.6176214"
   x="74.878784"
   y="35.897976" /><rect
   style="fill:#0000ff;fill-rule:evenodd;stroke-width:0.75"
   id="rect1799"
   width="7.2040009"
   height="0.14399984"
   x="92.932999"
   y="4.4369998" /><rect
   style="fill:#0000ff;fill-rule:evenodd;stroke-width:0.75"
   id="rect1921"
   width="11.916775"
   height="5.0379863"
   x="91.265053"
   y="2.9065304" /><text
   xml:space="preserve"
   style="font-style:normal;font-weight:normal;font-size:30px;line-height:1.25;font-family:sans-serif;fill:#000000;fill-opacity:1;stroke:none;stroke-width:0.75"
   x="64.815628"
   y="3.1971836"
   id="text12616"><tspan
     sodipodi:role="line"
     id="tspan12614"
     style="stroke-width:0.75" /></text><text
   xml:space="preserve"
   style="font-style:normal;font-variant:normal;font-weight:500;font-stretch:normal;font-size:10px;line-height:1.25;font-family:OCRA;-inkscape-font-specification:'OCRA Medium';white-space:pre;inline-size:0.0968843;fill:#000000;fill-opacity:1;stroke:none;stroke-width:0.75"
   x="64.428093"
   y="5.7161765"
   id="text18684" /><text
   xml:space="preserve"
   style="font-weight:bold;font-size:4.0000001px;line-height:1.25;font-family:sans-serif;-inkscape-font-specification:'sans-serif Bold';stroke-width:0.75;fill:#808000"
   x="64.621857"
   y="7.5569787"
   id="text28984"><tspan
     sodipodi:role="line"
     id="tspan28982"
     style="stroke-width:0.75;font-size:4.0000001px;fill:#808000"
     x="64.621857"
     y="7.5569787">PL2303  USB-UART</tspan></text><text
   xml:space="preserve"
   style="font-weight:bold;font-size:4px;line-height:1.25;font-family:OCRA;-inkscape-font-specification:'OCRA Bold';fill:#808000;stroke-width:0.75"
   x="73.922768"
   y="36.622284"
   id="text44532"><tspan
     sodipodi:role="line"
     id="tspan44530"
     style="font-size:4px;fill:#808000;stroke-width:0.75"
     x="73.922768"
     y="36.622284">usb to ttl</tspan></text></svg>
