<?xml version="1.0" encoding="UTF-8" standalone="no"?>
<!-- Generator: Adobe Illustrator 13.0.1, SVG Export Plug-In . SVG Version: 6.00 Build 14948)  -->

<svg
   viewBox="0 0 72.625 41.76"
   height="0.58in"
   width="1.00868in"
   id="pcb_2_"
   version="1.1"
   x="0px"
   y="0px"
   enable-background="new 0 0 72.625 41.76"
   gorn="0"
   xml:space="preserve"
   sodipodi:docname="pcb.PL2303_USBtoTTL.svg"
   inkscape:version="1.1.2 (b8e25be833, 2022-02-05)"
   xmlns:inkscape="http://www.inkscape.org/namespaces/inkscape"
   xmlns:sodipodi="http://sodipodi.sourceforge.net/DTD/sodipodi-0.dtd"
   xmlns="http://www.w3.org/2000/svg"
   xmlns:svg="http://www.w3.org/2000/svg"><defs
   id="defs122" /><sodipodi:namedview
   id="namedview120"
   pagecolor="#ffffff"
   bordercolor="#666666"
   borderopacity="1.0"
   inkscape:pageshadow="2"
   inkscape:pageopacity="0.0"
   inkscape:pagecheckerboard="0"
   inkscape:document-units="in"
   showgrid="false"
   inkscape:zoom="6.6144616"
   inkscape:cx="48.530027"
   inkscape:cy="27.893427"
   inkscape:window-width="1920"
   inkscape:window-height="991"
   inkscape:window-x="-9"
   inkscape:window-y="-9"
   inkscape:window-maximized="1"
   inkscape:current-layer="pcb_2_" />
  <desc
   id="desc2">
    <referenceFile>USB-TTL_UART_pcb.svg</referenceFile>
  </desc>
  <g
   id="silkscreen"
   gorn="0.1">
    <rect
   fill="none"
   height="41.759998"
   width="72.625"
   stroke-width="0.25"
   id="PCB_Outline"
   gorn="0.1.0"
   stroke="#000000"
   x="0"
   y="0" />
    <g
   id="Text_1_"
   gorn="0.1.1">
      <g
   id="CTS"
   gorn="0.1.1.0">
        
        
        
      </g>
      <g
   id="RTS"
   gorn="0.1.1.1">
        
        
        
      </g>
      <g
   id="DSR"
   gorn="0.1.1.2">
        
        
        
      </g>
      <g
   id="DCD"
   gorn="0.1.1.3">
        
        
        
      </g>
      <g
   id="_x33_V3_1_"
   gorn="0.1.1.4">
        <path
   stroke-width="0.01"
   d="m 59.651896,34.547586 c 0,0.143 -0.05,0.265 -0.15,0.367 l -0.221,0.222 0.221,0.218 c 0.101,0.103 0.15,0.225 0.15,0.367 v 0.232 c 0,0.143 -0.05,0.265 -0.15,0.367 l -0.304,0.304 c -0.103,0.101 -0.225,0.15 -0.367,0.15 h -0.701 c -0.143,0 -0.266,-0.05 -0.368,-0.15 l -0.386,-0.386 c -0.045,-0.048 -0.067,-0.104 -0.067,-0.169 0,-0.062 0.022,-0.117 0.068,-0.163 0.047,-0.046 0.102,-0.069 0.166,-0.069 0.062,0 0.117,0.023 0.164,0.069 l 0.383,0.383 c 0.013,0.011 0.026,0.018 0.041,0.021 h 0.696 c 0.015,-0.003 0.028,-0.011 0.041,-0.023 l 0.301,-0.295 c 0.007,-0.013 0.012,-0.026 0.015,-0.041 v -0.226 c -0.003,-0.016 -0.008,-0.029 -0.015,-0.042 l -0.301,-0.295 c -0.013,-0.011 -0.026,-0.017 -0.041,-0.02 h -0.814 c -0.065,0 -0.121,-0.022 -0.167,-0.068 -0.047,-0.046 -0.069,-0.101 -0.069,-0.162 0,-0.064 0.023,-0.12 0.069,-0.166 0.047,-0.046 0.103,-0.068 0.167,-0.068 h 0.816 c 0.015,-0.003 0.029,-0.008 0.041,-0.016 l 0.296,-0.301 c 0.009,-0.013 0.015,-0.027 0.017,-0.042 v -0.229 c -0.002,-0.015 -0.006,-0.028 -0.012,-0.042 l -0.301,-0.295 c -0.013,-0.011 -0.026,-0.018 -0.042,-0.021 h -0.698 c -0.015,0.003 -0.028,0.01 -0.041,0.021 l -0.383,0.382 c -0.047,0.047 -0.102,0.07 -0.164,0.07 -0.064,0 -0.119,-0.023 -0.166,-0.069 -0.046,-0.046 -0.068,-0.101 -0.068,-0.163 0,-0.065 0.022,-0.121 0.067,-0.169 l 0.386,-0.386 c 0.103,-0.101 0.226,-0.15 0.368,-0.15 h 0.701 c 0.143,0 0.265,0.05 0.367,0.15 l 0.304,0.304 c 0.101,0.103 0.15,0.225 0.15,0.367 v 0.232 z"
   stroke="#000000"
   id="path33" />
        <path
   stroke-width="0.01"
   d="m 62.227896,33.494586 c 0.064,0 0.12,0.023 0.167,0.069 0.046,0.046 0.069,0.102 0.069,0.167 v 1.755 c 0,0.143 -0.05,0.265 -0.15,0.367 l -0.854,0.855 c -0.048,0.045 -0.104,0.067 -0.169,0.067 -0.062,0 -0.117,-0.022 -0.165,-0.067 l -0.855,-0.855 c -0.1,-0.103 -0.149,-0.225 -0.149,-0.367 v -1.755 c 0,-0.065 0.022,-0.121 0.069,-0.167 0.046,-0.046 0.101,-0.069 0.163,-0.069 0.064,0 0.12,0.023 0.167,0.069 0.046,0.047 0.069,0.103 0.069,0.167 v 1.753 c 0.002,0.016 0.008,0.029 0.017,0.042 l 0.687,0.687 0.687,-0.687 c 0.009,-0.013 0.015,-0.026 0.017,-0.042 v -1.753 c 0,-0.064 0.022,-0.12 0.069,-0.167 0.044,-0.046 0.098,-0.069 0.161,-0.069 z"
   stroke="#000000"
   id="path35" />
        <path
   stroke-width="0.01"
   d="m 65.276896,34.547586 c 0,0.143 -0.05,0.265 -0.15,0.367 l -0.221,0.222 0.221,0.218 c 0.101,0.103 0.15,0.225 0.15,0.367 v 0.232 c 0,0.143 -0.05,0.265 -0.15,0.367 l -0.304,0.304 c -0.103,0.101 -0.225,0.15 -0.367,0.15 h -0.701 c -0.143,0 -0.266,-0.05 -0.368,-0.15 l -0.386,-0.386 c -0.045,-0.048 -0.067,-0.104 -0.067,-0.169 0,-0.062 0.022,-0.117 0.068,-0.163 0.047,-0.046 0.102,-0.069 0.166,-0.069 0.062,0 0.117,0.023 0.164,0.069 l 0.383,0.383 c 0.013,0.011 0.026,0.018 0.041,0.021 h 0.696 c 0.015,-0.003 0.028,-0.011 0.041,-0.023 l 0.301,-0.295 c 0.007,-0.013 0.012,-0.026 0.015,-0.041 v -0.226 c -0.003,-0.016 -0.008,-0.029 -0.015,-0.042 l -0.301,-0.295 c -0.013,-0.011 -0.026,-0.017 -0.041,-0.02 h -0.813 c -0.065,0 -0.121,-0.022 -0.167,-0.068 -0.047,-0.046 -0.069,-0.101 -0.069,-0.162 0,-0.064 0.023,-0.12 0.069,-0.166 0.047,-0.046 0.103,-0.068 0.167,-0.068 h 0.816 c 0.015,-0.003 0.029,-0.008 0.041,-0.016 l 0.296,-0.301 c 0.009,-0.013 0.015,-0.027 0.017,-0.042 v -0.229 c -0.002,-0.015 -0.006,-0.028 -0.012,-0.042 l -0.301,-0.295 c -0.013,-0.011 -0.026,-0.018 -0.042,-0.021 h -0.698 c -0.015,0.003 -0.028,0.01 -0.041,0.021 l -0.383,0.382 c -0.047,0.047 -0.102,0.07 -0.164,0.07 -0.064,0 -0.119,-0.023 -0.166,-0.069 -0.046,-0.046 -0.068,-0.101 -0.068,-0.163 0,-0.065 0.022,-0.121 0.067,-0.169 l 0.386,-0.386 c 0.103,-0.101 0.226,-0.15 0.368,-0.15 h 0.701 c 0.143,0 0.265,0.05 0.367,0.15 l 0.304,0.304 c 0.101,0.103 0.15,0.225 0.15,0.367 z"
   stroke="#000000"
   id="path37" />
      </g>
      <g
   id="GND_1_"
   gorn="0.1.1.5">
        <path
   stroke-width="0.01"
   d="m 57.677508,12.904093 c -0.008,0.013 -0.013,0.026 -0.015,0.041 v 1.633 c 0.002,0.015 0.007,0.028 0.015,0.041 l 0.3,0.3 c 0.013,0.009 0.026,0.016 0.041,0.019 h 0.694 c 0.016,-0.003 0.029,-0.01 0.042,-0.019 l 0.3,-0.3 c 0.007,-0.013 0.012,-0.026 0.015,-0.041 v -0.582 h -0.232 c -0.065,0 -0.121,-0.022 -0.167,-0.068 -0.047,-0.046 -0.069,-0.102 -0.069,-0.166 0,-0.062 0.022,-0.116 0.069,-0.162 0.046,-0.046 0.102,-0.068 0.167,-0.068 h 0.469 c 0.062,0 0.116,0.022 0.163,0.069 0.046,0.046 0.069,0.102 0.069,0.166 v 0.815 c 0,0.143 -0.05,0.265 -0.15,0.366 l -0.304,0.304 c -0.103,0.101 -0.225,0.15 -0.367,0.15 h -0.701 c -0.143,0 -0.266,-0.05 -0.368,-0.15 l -0.304,-0.304 c -0.1,-0.103 -0.149,-0.225 -0.149,-0.367 v -1.639 c 0,-0.143 0.05,-0.265 0.149,-0.367 l 0.304,-0.304 c 0.103,-0.101 0.226,-0.15 0.368,-0.15 h 0.701 c 0.143,0 0.265,0.05 0.367,0.15 l 0.387,0.386 c 0.045,0.048 0.067,0.104 0.067,0.169 0,0.062 -0.023,0.117 -0.069,0.163 -0.047,0.046 -0.103,0.069 -0.167,0.069 -0.062,0 -0.118,-0.022 -0.165,-0.067 l -0.382,-0.387 c -0.013,-0.009 -0.026,-0.016 -0.042,-0.019 h -0.694 c -0.015,0.003 -0.028,0.01 -0.041,0.019 z"
   stroke="#000000"
   id="path40" />
        <path
   stroke-width="0.01"
   d="m 62.118508,12.120093 c 0.064,0 0.12,0.023 0.165,0.069 0.045,0.046 0.067,0.102 0.067,0.167 v 2.812 c 0,0.062 -0.022,0.117 -0.067,0.163 -0.045,0.046 -0.101,0.069 -0.165,0.069 -0.065,0 -0.121,-0.023 -0.167,-0.069 -0.047,-0.047 -0.069,-0.101 -0.069,-0.163 v -0.846 l -1.406,-1.404 v 2.25 c 0,0.062 -0.022,0.117 -0.067,0.163 -0.045,0.046 -0.101,0.069 -0.165,0.069 -0.065,0 -0.121,-0.023 -0.167,-0.069 -0.047,-0.046 -0.069,-0.101 -0.069,-0.163 v -2.812 c 0,-0.065 0.022,-0.121 0.069,-0.167 0.046,-0.046 0.102,-0.069 0.167,-0.069 0.064,0 0.12,0.022 0.165,0.067 l 1.474,1.478 v -1.309 c 0,-0.065 0.022,-0.121 0.069,-0.167 0.045,-0.045 0.1,-0.069 0.166,-0.069 z"
   stroke="#000000"
   id="path42" />
        <path
   stroke-width="0.01"
   d="m 65.008508,12.574093 c 0.103,0.103 0.154,0.225 0.154,0.367 v 1.639 c 0,0.143 -0.05,0.265 -0.15,0.367 l -0.304,0.304 c -0.103,0.101 -0.225,0.15 -0.367,0.15 h -1.286 c -0.065,0 -0.121,-0.023 -0.167,-0.069 -0.047,-0.046 -0.069,-0.102 -0.069,-0.167 v -2.809 c 0,-0.065 0.022,-0.121 0.069,-0.167 0.046,-0.046 0.102,-0.069 0.167,-0.069 h 1.286 c 0.143,0 0.265,0.051 0.367,0.153 z m -0.331,2.046 c 0.009,-0.013 0.015,-0.026 0.017,-0.041 v -1.631 c 0,-0.015 -0.007,-0.028 -0.021,-0.041 l -0.295,-0.301 c -0.013,-0.01 -0.026,-0.017 -0.041,-0.021 h -1.049 v 2.352 h 1.052 c 0.016,-0.003 0.029,-0.01 0.042,-0.021 z"
   stroke="#000000"
   id="path44" />
      </g>
      <g
   id="_x2B_5V_1_"
   gorn="0.1.1.6">
        <path
   stroke-width="0.01"
   d="m 59.211508,6.4434808 c 0.062,0 0.116,0.022 0.163,0.068 0.046,0.046 0.069,0.102 0.069,0.166 0,0.062 -0.023,0.116 -0.069,0.162 -0.047,0.046 -0.101,0.068 -0.163,0.068 h -0.236 v 0.232 c 0,0.065 -0.023,0.121 -0.069,0.167 -0.047,0.046 -0.101,0.069 -0.163,0.069 -0.065,0 -0.121,-0.023 -0.167,-0.069 -0.047,-0.046 -0.069,-0.102 -0.069,-0.167 v -0.232 h -0.232 c -0.065,0 -0.121,-0.022 -0.167,-0.068 -0.047,-0.046 -0.069,-0.102 -0.069,-0.166 0,-0.062 0.022,-0.116 0.069,-0.162 0.046,-0.046 0.102,-0.068 0.167,-0.068 h 0.232 v -0.234 c 0,-0.065 0.022,-0.122 0.069,-0.168 0.046,-0.047 0.102,-0.07 0.167,-0.07 0.062,0 0.116,0.023 0.163,0.07 0.046,0.046 0.069,0.103 0.069,0.168 v 0.234 z"
   stroke="#000000"
   id="path47" />
        <path
   stroke-width="0.01"
   d="m 60.265508,5.0334808 h 1.755 c 0.064,0 0.12,0.023 0.167,0.068 0.046,0.046 0.069,0.102 0.069,0.166 0,0.062 -0.023,0.116 -0.069,0.162 -0.047,0.046 -0.103,0.068 -0.167,0.068 h -1.639 v 0.473 h 1.054 c 0.143,0 0.265,0.05 0.367,0.15 l 0.304,0.304 c 0.101,0.103 0.15,0.225 0.15,0.367 v 0.701 c 0,0.143 -0.05,0.265 -0.15,0.367 l -0.304,0.304 c -0.103,0.101 -0.225,0.15 -0.367,0.15 h -0.701 c -0.143,0 -0.266,-0.05 -0.368,-0.15 l -0.386,-0.386 c -0.045,-0.048 -0.067,-0.104 -0.067,-0.169 0,-0.062 0.022,-0.117 0.068,-0.163 0.047,-0.046 0.102,-0.069 0.166,-0.069 0.062,0 0.117,0.023 0.164,0.069 l 0.383,0.383 c 0.013,0.011 0.026,0.018 0.041,0.021 h 0.696 c 0.015,-0.003 0.028,-0.011 0.041,-0.023 l 0.301,-0.295 c 0.007,-0.013 0.012,-0.026 0.015,-0.042 v -0.696 c -0.002,-0.016 -0.006,-0.029 -0.012,-0.042 l -0.301,-0.295 c -0.013,-0.011 -0.026,-0.018 -0.042,-0.021 h -1.168 c -0.098,0 -0.181,-0.034 -0.249,-0.103 -0.069,-0.068 -0.104,-0.151 -0.104,-0.249 v -0.699 c 0,-0.098 0.034,-0.18 0.103,-0.249 0.069,-0.068 0.152,-0.102 0.25,-0.102 z"
   stroke="#000000"
   id="path49" />
        <path
   stroke-width="0.01"
   d="m 64.833508,5.0334808 c 0.064,0 0.12,0.023 0.167,0.069 0.046,0.046 0.069,0.102 0.069,0.167 v 1.755 c 0,0.143 -0.05,0.265 -0.15,0.367 l -0.854,0.855 c -0.048,0.045 -0.104,0.067 -0.169,0.067 -0.062,0 -0.117,-0.022 -0.165,-0.067 l -0.855,-0.855 c -0.1,-0.103 -0.149,-0.225 -0.149,-0.367 v -1.755 c 0,-0.065 0.022,-0.121 0.069,-0.167 0.046,-0.046 0.101,-0.069 0.163,-0.069 0.064,0 0.12,0.023 0.167,0.069 0.046,0.047 0.069,0.103 0.069,0.167 v 1.753 c 0.002,0.016 0.008,0.029 0.017,0.042 l 0.687,0.687 0.687,-0.687 c 0.009,-0.013 0.015,-0.026 0.017,-0.042 v -1.753 c 0,-0.064 0.022,-0.12 0.069,-0.167 0.043,-0.045 0.098,-0.069 0.161,-0.069 z"
   stroke="#000000"
   id="path51" />
      </g>
      <g
   id="TXD_3_"
   gorn="0.1.1.7">
        <path
   stroke-width="0.01"
   d="m 58.965345,26.407243 c 0.062,0 0.116,0.023 0.163,0.068 0.046,0.046 0.069,0.102 0.069,0.166 0,0.062 -0.023,0.116 -0.069,0.162 -0.047,0.046 -0.101,0.068 -0.163,0.068 h -0.705 v 2.58 c 0,0.064 -0.023,0.121 -0.069,0.167 -0.047,0.046 -0.101,0.069 -0.163,0.069 -0.065,0 -0.121,-0.023 -0.167,-0.069 -0.047,-0.046 -0.069,-0.103 -0.069,-0.167 v -2.58 h -0.701 c -0.065,0 -0.121,-0.022 -0.167,-0.068 -0.047,-0.046 -0.069,-0.101 -0.069,-0.162 0,-0.064 0.022,-0.12 0.069,-0.166 0.046,-0.045 0.102,-0.068 0.167,-0.068 z"
   stroke="#000000"
   id="path54" />
        <path
   stroke-width="0.01"
   d="m 61.778345,26.407243 c 0.062,0 0.116,0.023 0.163,0.069 0.046,0.046 0.069,0.102 0.069,0.167 v 0.349 c 0,0.143 -0.05,0.265 -0.15,0.367 l -0.692,0.691 0.692,0.686 c 0.101,0.103 0.15,0.225 0.15,0.367 v 0.349 c 0,0.065 -0.023,0.121 -0.069,0.167 -0.047,0.046 -0.101,0.069 -0.163,0.069 -0.065,0 -0.121,-0.023 -0.167,-0.069 -0.047,-0.046 -0.069,-0.103 -0.069,-0.167 v -0.346 c -0.003,-0.015 -0.008,-0.028 -0.015,-0.041 l -0.686,-0.684 -0.691,0.685 c -0.007,0.012 -0.013,0.025 -0.015,0.041 v 0.345 c 0,0.065 -0.023,0.121 -0.069,0.167 -0.047,0.046 -0.101,0.069 -0.163,0.069 -0.065,0 -0.121,-0.023 -0.167,-0.069 -0.047,-0.046 -0.069,-0.102 -0.069,-0.167 v -0.349 c 0,-0.143 0.05,-0.265 0.15,-0.367 l 0.69,-0.688 -0.69,-0.688 c -0.101,-0.103 -0.15,-0.225 -0.15,-0.367 v -0.349 c 0,-0.065 0.022,-0.121 0.069,-0.167 0.046,-0.046 0.102,-0.069 0.167,-0.069 0.062,0 0.116,0.023 0.163,0.069 0.046,0.047 0.069,0.103 0.069,0.168 v 0.346 c 0.002,0.015 0.008,0.028 0.015,0.041 l 0.691,0.688 0.686,-0.689 c 0.007,-0.013 0.012,-0.026 0.015,-0.041 v -0.346 c 0,-0.064 0.022,-0.121 0.069,-0.167 0.046,-0.046 0.101,-0.07 0.167,-0.07 z"
   stroke="#000000"
   id="path56" />
        <path
   stroke-width="0.01"
   d="m 64.668345,26.862243 c 0.103,0.103 0.154,0.225 0.154,0.367 v 1.639 c 0,0.143 -0.05,0.265 -0.15,0.367 l -0.304,0.304 c -0.103,0.101 -0.225,0.15 -0.367,0.15 h -1.286 c -0.065,0 -0.121,-0.023 -0.167,-0.069 -0.047,-0.046 -0.069,-0.102 -0.069,-0.167 v -2.809 c 0,-0.065 0.022,-0.121 0.069,-0.167 0.046,-0.046 0.102,-0.069 0.167,-0.069 h 1.286 c 0.143,0 0.265,0.051 0.367,0.153 z m -0.331,2.045 c 0.009,-0.013 0.015,-0.026 0.017,-0.041 v -1.631 c 0,-0.015 -0.007,-0.028 -0.021,-0.041 l -0.295,-0.301 c -0.013,-0.01 -0.026,-0.017 -0.041,-0.021 h -1.049 v 2.352 h 1.052 c 0.016,-0.003 0.029,-0.01 0.042,-0.021 z"
   stroke="#000000"
   id="path58" />
      </g>
      <g
   id="RXD_3_"
   gorn="0.1.1.8">
        <path
   stroke-width="0.01"
   d="m 59.311731,22.142855 c 0,0.062 -0.023,0.117 -0.069,0.163 -0.047,0.046 -0.101,0.069 -0.163,0.069 -0.065,0 -0.121,-0.022 -0.169,-0.067 l -1.335,-1.339 h -0.139 v 1.17 c 0,0.065 -0.023,0.121 -0.069,0.167 -0.047,0.046 -0.101,0.069 -0.163,0.069 -0.065,0 -0.121,-0.023 -0.167,-0.069 -0.047,-0.046 -0.069,-0.102 -0.069,-0.167 v -2.808 c 0,-0.065 0.022,-0.121 0.069,-0.167 0.046,-0.046 0.102,-0.069 0.167,-0.069 h 1.286 c 0.143,0 0.265,0.05 0.367,0.15 l 0.304,0.304 c 0.101,0.103 0.15,0.225 0.15,0.367 v 0.232 c 0,0.143 -0.05,0.265 -0.15,0.367 l -0.304,0.304 c -0.103,0.101 -0.225,0.15 -0.367,0.15 h -0.255 l 1.009,1.005 c 0.044,0.048 0.067,0.104 0.067,0.169 z m -1.875,-1.642 h 1.05 c 0.015,-0.003 0.028,-0.009 0.041,-0.019 l 0.3,-0.297 c 0.008,-0.012 0.013,-0.025 0.016,-0.041 v -0.225 c -0.003,-0.016 -0.008,-0.029 -0.016,-0.041 l -0.3,-0.297 c -0.013,-0.01 -0.026,-0.016 -0.041,-0.019 h -1.05 z"
   stroke="#000000"
   id="path61" />
        <path
   stroke-width="0.01"
   d="m 61.891731,19.093855 c 0.062,0 0.116,0.023 0.163,0.069 0.046,0.046 0.069,0.102 0.069,0.167 v 0.349 c 0,0.143 -0.05,0.265 -0.15,0.367 l -0.692,0.691 0.692,0.686 c 0.101,0.103 0.15,0.225 0.15,0.367 v 0.349 c 0,0.065 -0.023,0.121 -0.069,0.167 -0.047,0.046 -0.101,0.069 -0.163,0.069 -0.065,0 -0.121,-0.023 -0.167,-0.069 -0.047,-0.046 -0.069,-0.103 -0.069,-0.167 v -0.346 c -0.003,-0.015 -0.008,-0.028 -0.015,-0.041 l -0.686,-0.684 -0.691,0.685 c -0.007,0.012 -0.013,0.025 -0.015,0.041 v 0.345 c 0,0.065 -0.023,0.121 -0.069,0.167 -0.047,0.046 -0.101,0.069 -0.163,0.069 -0.065,0 -0.121,-0.023 -0.167,-0.069 -0.047,-0.046 -0.069,-0.102 -0.069,-0.167 v -0.349 c 0,-0.143 0.05,-0.265 0.15,-0.367 l 0.69,-0.688 -0.69,-0.688 c -0.101,-0.103 -0.15,-0.225 -0.15,-0.367 v -0.349 c 0,-0.065 0.022,-0.121 0.069,-0.167 0.046,-0.046 0.102,-0.069 0.167,-0.069 0.062,0 0.116,0.023 0.163,0.069 0.046,0.047 0.069,0.103 0.069,0.168 v 0.346 c 0.002,0.015 0.008,0.028 0.015,0.041 l 0.691,0.688 0.686,-0.689 c 0.007,-0.013 0.012,-0.026 0.015,-0.041 v -0.346 c 0,-0.064 0.022,-0.121 0.069,-0.167 0.046,-0.046 0.101,-0.07 0.167,-0.07 z"
   stroke="#000000"
   id="path63" />
        <path
   stroke-width="0.01"
   d="m 64.781731,19.547855 c 0.103,0.103 0.154,0.225 0.154,0.367 v 1.639 c 0,0.143 -0.05,0.265 -0.15,0.367 l -0.304,0.304 c -0.103,0.101 -0.225,0.15 -0.367,0.15 h -1.286 c -0.065,0 -0.121,-0.023 -0.167,-0.069 -0.047,-0.046 -0.069,-0.102 -0.069,-0.167 v -2.808 c 0,-0.065 0.022,-0.121 0.069,-0.167 0.046,-0.046 0.102,-0.069 0.167,-0.069 h 1.286 c 0.143,0 0.265,0.051 0.367,0.153 z m -0.331,2.046 c 0.009,-0.013 0.015,-0.026 0.017,-0.041 v -1.632 c 0,-0.015 -0.007,-0.028 -0.021,-0.041 l -0.295,-0.301 c -0.013,-0.01 -0.026,-0.017 -0.041,-0.021 h -1.049 v 2.352 h 1.052 c 0.016,-0.003 0.029,-0.01 0.042,-0.021 z"
   stroke="#000000"
   id="path65" />
      </g>
      <g
   id="DTR_1_"
   gorn="0.1.1.9">
        
        
        
      </g>
      <g
   id="SUS_1_"
   gorn="0.1.1.10">
        
        
        
      </g>
      <g
   id="SUS"
   gorn="0.1.1.11">
        
        
        
      </g>
      <g
   id="RI"
   gorn="0.1.1.12">
        
        
      </g>
      <g
   id="RST"
   gorn="0.1.1.13">
        
        
        
      </g>
    </g>
  </g>
  <g
   id="copper1"
   gorn="0.2">
    <g
   id="copper0"
   gorn="0.2.0">
      
      
      
      
      
      <circle
   fill="none"
   r="1.919"
   stroke-width="1"
   id="connector8pad"
   gorn="0.2.0.5"
   cx="68.420898"
   cy="6.4515858"
   stroke="#f7bd13" />
      <circle
   fill="none"
   r="1.919"
   stroke-width="1"
   id="connector7pad"
   gorn="0.2.0.6"
   cx="68.420898"
   cy="13.651587"
   stroke="#f7bd13" />
      <circle
   fill="none"
   r="1.919"
   stroke-width="1"
   id="connector6pad"
   gorn="0.2.0.7"
   cx="68.420898"
   cy="20.851585"
   stroke="#f7bd13" />
      <circle
   fill="none"
   r="1.919"
   stroke-width="1"
   id="connector5pad"
   gorn="0.2.0.8"
   cx="68.420898"
   cy="28.051586"
   stroke="#f7bd13" />
      <circle
   fill="none"
   r="1.919"
   stroke-width="1"
   id="connector4pad"
   gorn="0.2.0.9"
   cx="68.420898"
   cy="35.251587"
   stroke="#f7bd13" />
      
      
      
      
    </g>
  </g>
</svg>
